<svg width="3771" height="3799" viewBox="0 0 3771 3799" fill="none" xmlns="http://www.w3.org/2000/svg">
<g opacity="0.3">
<path d="M2900.19 339.737C2918.83 493.631 2954.52 717.887 2975.63 724.868C3006.48 735.18 3212.34 735.18 3212.34 735.18C3212.34 735.18 3238.04 1733.35 3263.74 1743.66C3289.44 1753.97 3366.86 1759.05 3387.25 1733.35C3398.91 1718.75 3367.42 1398.59 3338.07 1124.75" stroke="black" stroke-linecap="round" stroke-linejoin="round"/>
<path d="M3439.05 278.497C3414.14 184.098 3392.57 107.469 3392.57 107.469C3392.57 107.469 2893.28 158.952 2888.13 199.964C2888.21 229.578 2890.28 259.154 2894.32 288.492" stroke="black" stroke-linecap="round" stroke-linejoin="round"/>
<path d="M3331.41 1063.12C3311.73 882.093 3294.6 735.18 3294.6 735.18C3294.6 735.18 3495.69 652.839 3510.76 616.825C3518.7 597.707 3484.98 454.84 3451.35 325.3" stroke="black" stroke-linecap="round" stroke-linejoin="round"/>
<path d="M3117.14 552.729L3123.57 587.553C3124.56 592.892 3124.48 598.373 3123.35 603.683C3122.21 608.993 3120.05 614.027 3116.97 618.499C3113.89 622.971 3109.96 626.792 3105.4 629.744C3100.84 632.696 3095.75 634.722 3090.41 635.705C3079.64 637.673 3068.53 635.286 3059.52 629.069C3050.5 622.853 3044.33 613.314 3042.34 602.546L2984.19 287.62C2982.27 276.863 2984.68 265.783 2990.89 256.793C2997.1 247.804 3006.61 241.633 3017.35 239.627C3022.69 238.641 3028.17 238.717 3033.48 239.85C3038.79 240.983 3043.83 243.151 3048.3 246.23C3052.77 249.309 3056.59 253.239 3059.54 257.796C3062.49 262.352 3064.52 267.446 3065.5 272.786L3104.06 481.732" stroke="black" stroke-linecap="round" stroke-linejoin="round"/>
<path d="M3238.51 608.178C3227.73 610.148 3216.61 607.764 3207.59 601.548C3198.56 595.333 3192.37 585.793 3190.36 575.02L3132.3 260.093C3131.31 254.754 3131.39 249.273 3132.52 243.964C3133.65 238.654 3135.82 233.619 3138.9 229.148C3141.98 224.676 3145.91 220.855 3150.46 217.903C3155.02 214.951 3160.11 212.925 3165.45 211.942C3170.79 210.957 3176.26 211.033 3181.57 212.167C3186.87 213.301 3191.9 215.47 3196.37 218.55C3200.83 221.63 3204.65 225.561 3207.59 230.116C3210.54 234.672 3212.55 239.764 3213.53 245.1L3271.67 560.027C3272.66 565.366 3272.58 570.847 3271.45 576.157C3270.32 581.467 3268.15 586.501 3265.07 590.973C3261.99 595.444 3258.06 599.265 3253.5 602.218C3248.95 605.17 3243.85 607.195 3238.51 608.178Z" stroke="black" stroke-linecap="round" stroke-linejoin="round"/>
<path d="M3312.37 406.213L3280.64 232.646C3279.58 227.317 3279.58 221.83 3280.64 216.501C3281.71 211.173 3283.82 206.108 3286.85 201.596C3289.88 197.085 3293.77 193.217 3298.3 190.214C3302.83 187.211 3307.9 185.133 3313.24 184.098C3318.58 183.112 3324.06 183.188 3329.37 184.321C3334.68 185.454 3339.71 187.622 3344.18 190.701C3348.66 193.781 3352.48 197.711 3355.43 202.267C3358.38 206.824 3360.41 211.917 3361.39 217.257L3419.54 532.183C3420.57 537.533 3420.54 543.035 3419.45 548.374C3418.35 553.712 3416.21 558.781 3413.15 563.291C3410.1 567.802 3406.18 571.664 3401.62 574.656C3397.07 577.649 3391.97 579.714 3386.62 580.731C3381.28 581.717 3375.8 581.642 3370.49 580.509C3365.18 579.376 3360.14 577.208 3355.67 574.128C3351.2 571.049 3347.38 567.119 3344.43 562.562C3341.47 558.006 3339.45 552.912 3338.46 547.573L3321.17 453.809" stroke="black" stroke-linecap="round" stroke-linejoin="round"/>
</g>
<g opacity="0.3">
<path d="M3097.71 2080C3097.71 2080 3104.45 2059.7 3080.73 2008.61C3057.01 1957.52 2982.45 1920.48 2982.45 1920.48C2982.45 1920.48 2975.63 1893.35 3009.5 1889.94C3043.37 1886.53 3084.14 1930.63 3104.69 1967.92C3125.24 2005.2 3141.97 2076.43 3141.97 2076.43C3141.97 2076.43 3172.51 2039.07 3216.54 2035.74C3260.57 2032.41 3325.06 2052.64 3325.06 2052.64L3229.87 2093.33L3206.07 2100.15" stroke="black" stroke-linecap="round" stroke-linejoin="round"/>
<path d="M3202.74 2123.79C3202.74 2123.79 3240.1 2116.97 3260.41 2144.1C3280.72 2171.23 3318 2232.23 3318 2232.23C3318 2232.23 3226.54 2208.43 3189.17 2194.95C3151.81 2181.46 3128.17 2133.95 3128.17 2133.95L3077.32 2208.51L2985.78 2252.62L3026.47 2144.1L3046.86 2100.07C3046.86 2100.07 3019.73 2116.97 2999.26 2116.97C2978.8 2116.97 2918.03 2127.6 2918.03 2127.6C2918.03 2127.6 2995.93 2052.95 3026.47 2046.21C3044.8 2042.17 3063.95 2044.55 3080.73 2052.95" stroke="black" stroke-linecap="round" stroke-linejoin="round"/>
<path d="M2934.93 2062.79C2934.93 2062.79 2863.54 2076.36 2829.82 2232.23C2796.11 2388.11 2965.47 2544.14 3097.71 2561.12C3229.95 2578.1 3362.1 2547.55 3433.26 2364.47C3504.42 2181.38 3409.46 2055.97 3358.69 2015.43" stroke="black" stroke-linecap="round" stroke-linejoin="round"/>
<path d="M3314.67 1994.97C3314.67 1994.97 3267.07 1950.86 3145.15 1971.17" stroke="black" stroke-linecap="round" stroke-linejoin="round"/>
</g>
<g opacity="0.3">
<path d="M2913.99 2712.4C2913.99 2712.4 2918.83 2697.88 2901.85 2661.55C2884.88 2625.22 2831.65 2598.56 2831.65 2598.56C2831.65 2598.56 2826.81 2579.21 2851 2576.75C2875.2 2574.29 2904.31 2605.86 2918.83 2632.28C2933.34 2658.69 2945.48 2709.78 2945.48 2709.78C2945.48 2709.78 2967.22 2683.12 2998.71 2680.74C3030.2 2678.36 3076.21 2692.8 3076.21 2692.8L3008.39 2721.92L2991.49 2726.75" stroke="black" stroke-linecap="round" stroke-linejoin="round"/>
<path d="M2989.03 2743.81C2989.03 2743.81 3015.69 2738.97 3030.2 2758.4C3044.72 2777.84 3071.37 2821.31 3071.37 2821.31C3071.37 2821.31 3006.01 2804.41 2979.35 2794.66C2952.7 2784.9 2935.8 2751.11 2935.8 2751.11L2899.47 2804.41L2834.11 2836.15L2863.14 2758.72L2877.66 2726.99C2867.39 2733.45 2855.83 2737.57 2843.78 2739.05C2829.27 2739.05 2785.64 2746.35 2785.64 2746.35C2785.64 2746.35 2841.17 2693.04 2863.14 2688.2C2876.22 2685.33 2889.88 2687.04 2901.85 2693.04" stroke="black" stroke-linecap="round" stroke-linejoin="round"/>
<path d="M2797.62 2700.26C2797.62 2700.26 2746.77 2709.94 2722.57 2821.31C2698.38 2932.69 2819.35 3044.06 2913.83 3056.2C3008.31 3068.33 3102.71 3046.52 3153.55 2915.79C3204.4 2785.06 3136.58 2695.42 3100.25 2666.39" stroke="black" stroke-linecap="round" stroke-linejoin="round"/>
<path d="M3068.91 2651.87C3068.91 2651.87 3035.04 2620.14 2947.86 2634.89" stroke="black" stroke-linecap="round" stroke-linejoin="round"/>
</g>
<g opacity="0.3">
<path d="M3568.51 2760.31C3568.51 2760.31 3582 2762.37 3611.43 2742.06C3640.86 2721.76 3656.41 2670.67 3656.41 2670.67C3656.41 2670.67 3672.67 2663.53 3678.46 2684.47C3684.25 2705.42 3660.85 2735.72 3639.59 2752.46C3619.39 2766.22 3597.86 2777.94 3575.33 2787.44C3591.31 2797.07 3603.24 2812.18 3608.89 2829.96C3615.71 2857.33 3609.76 2899.92 3609.76 2899.92L3574.07 2844.4L3567.32 2830.2" stroke="black" stroke-linecap="round" stroke-linejoin="round"/>
<path d="M3552.01 2830.99C3552.01 2830.99 3559.94 2853.76 3545.43 2869.38C3530.91 2885.01 3496.17 2915 3496.17 2915C3496.17 2915 3501.32 2854.95 3505.84 2830.12C3510.37 2805.29 3537.57 2785.22 3537.57 2785.22L3485.3 2761.42L3448.09 2708.43L3520.6 2722.39L3550.51 2730.32C3543.2 2722.28 3537.78 2712.72 3534.64 2702.32C3532.42 2689.55 3519.57 2652.27 3519.57 2652.27C3519.57 2652.27 3574.7 2693.28 3582.24 2711.76C3586.72 2722.85 3587.25 2735.15 3583.74 2746.59" stroke="black" stroke-linecap="round" stroke-linejoin="round"/>
<path d="M3561.85 2656.23C3561.85 2656.23 3545.98 2612.92 3444.13 2608.24C3342.27 2603.56 3262.55 2726.67 3266.04 2811.55C3269.53 2896.43 3302.69 2976.32 3425.33 3001.54C3547.97 3026.77 3616.66 2953.95 3636.81 2917.46" stroke="black" stroke-linecap="round" stroke-linejoin="round"/>
<path d="M3644.9 2887.55C3644.9 2887.55 3667.51 2853.04 3641.73 2778.55" stroke="black" stroke-linecap="round" stroke-linejoin="round"/>
</g>
<g opacity="0.3">
<path d="M3171.56 3184.79C3171.56 3184.79 2966.11 3085.39 2946.2 3158.21C2926.28 3231.03 3025.52 3257.69 3039.01 3337.17C3052.49 3416.66 3118.33 3469.73 3211.3 3449.82C3304.28 3429.9 3357.11 3304.01 3310.7 3231.11" stroke="black" stroke-linecap="round" stroke-linejoin="round"/>
<path d="M3065.5 3456.48C3065.5 3456.48 3032.34 3443.23 3025.84 3529.38C3019.33 3615.53 3164.98 3701.68 3277.62 3661.86C3390.27 3622.03 3522.82 3509.47 3430.09 3304.01" stroke="black" stroke-linecap="round" stroke-linejoin="round"/>
<path d="M3024.33 3485.67C3024.33 3485.67 2947.78 3477.18 2925.17 3556.51C2902.57 3635.84 2973.32 3715.16 3089.46 3729.36C3205.59 3743.56 3310.54 3664.16 3310.54 3664.16" stroke="black" stroke-linecap="round" stroke-linejoin="round"/>
<path d="M2981.81 3468.7C2981.81 3468.7 2950.64 3437.52 2916.61 3431.81C2882.58 3426.1 2823.16 3360.97 2823.16 3329.79C2823.16 3298.62 2763.66 3295.84 2740.98 3360.97C2718.29 3426.1 2729.63 3556.51 2777.78 3624.49C2825.94 3692.48 2905.34 3735 2976.1 3729.36" stroke="black" stroke-linecap="round" stroke-linejoin="round"/>
<path d="M3098.03 3451.64C3098.03 3451.64 3208.53 3508.36 3290.71 3457.35C3372.89 3406.34 3364.33 3324.16 3347.35 3264.67" stroke="black" stroke-linecap="round" stroke-linejoin="round"/>
<path d="M2942.15 3491.3C2942.15 3491.3 2879.8 3525.33 2879.8 3613.15C2879.8 3700.96 3007.36 3729.36 3007.36 3729.36" stroke="black" stroke-linecap="round" stroke-linejoin="round"/>
<path d="M3205.67 3185.26C3205.67 3185.26 3259.3 3190.42 3285 3210.8" stroke="black" stroke-linecap="round" stroke-linejoin="round"/>
</g>
<g opacity="0.3">
<path d="M2444.53 3702.55C2444.53 3702.55 2660.94 3630.2 2624.21 3564.13C2587.48 3498.05 2497.92 3548.26 2432.87 3500.66C2367.82 3453.07 2283.34 3461.4 2230.83 3540.33C2178.31 3619.26 2228.45 3746.58 2312.53 3766.25" stroke="black" stroke-linecap="round" stroke-linejoin="round"/>
<path d="M2330.54 3434.11C2330.54 3434.11 2363.46 3420.46 2308.01 3354.15C2252.56 3287.83 2088.12 3328.13 2035.29 3435.3C1982.46 3542.47 1966.35 3715.64 2176.25 3797.82" stroke="black" stroke-linecap="round" stroke-linejoin="round"/>
<path d="M2339.58 3384.45C2339.58 3384.45 2400.27 3336.85 2361.08 3264.51C2321.89 3192.16 2215.76 3184.63 2122.71 3255.62C2029.66 3326.62 2010.14 3456.72 2010.14 3456.72" stroke="black" stroke-linecap="round" stroke-linejoin="round"/>
<path d="M2381.87 3366.92C2381.87 3366.92 2425.97 3367.47 2454.21 3347.72C2482.45 3327.97 2570.66 3333.05 2592.4 3355.65C2614.13 3378.26 2658.72 3338.36 2629.44 3276.33C2600.17 3214.29 2500.93 3128.54 2418.99 3113.47C2337.05 3098.4 2250.5 3123.55 2203.78 3176.93" stroke="black" stroke-linecap="round" stroke-linejoin="round"/>
<path d="M2310.63 3460.29C2310.63 3460.29 2191.64 3496.94 2168.79 3590.86C2145.95 3684.78 2209.17 3737.61 2262.88 3768.31" stroke="black" stroke-linecap="round" stroke-linejoin="round"/>
<path d="M2394.4 3322.97C2394.4 3322.97 2415.26 3255.07 2353.86 3192.24C2292.46 3129.42 2181.49 3198.19 2181.49 3198.19" stroke="black" stroke-linecap="round" stroke-linejoin="round"/>
<path d="M2419.7 3726.03C2419.7 3726.03 2377.74 3759.82 2345.14 3763.23" stroke="black" stroke-linecap="round" stroke-linejoin="round"/>
</g>
<g opacity="0.3">
<path d="M466.684 2329.88C617.511 2259.57 788.341 2244.84 948.975 2288.31C1109.61 2331.78 1249.7 2430.64 1344.49 2567.42C1439.28 2704.2 1482.65 2870.09 1466.95 3035.76C1451.25 3201.42 1377.48 3356.21 1258.68 3472.74" stroke="black" stroke-linecap="round" stroke-linejoin="round"/>
<path d="M1219.73 3508.28C1144.41 3571.84 1056.61 3618.91 961.983 3646.45C867.357 3674 768.01 3681.41 670.345 3668.21C572.679 3655.01 478.864 3621.49 394.947 3569.81C311.031 3518.13 238.874 3449.44 183.131 3368.17C127.387 3286.89 89.2932 3194.84 71.3047 3097.94C53.3163 3001.05 55.8326 2901.45 78.6915 2805.59C101.55 2709.72 144.245 2619.71 204.022 2541.36C263.798 2463 339.331 2398.04 425.751 2350.67" stroke="black" stroke-linecap="round" stroke-linejoin="round"/>
<path d="M1228.77 3047.07C1215.43 3126.41 1181.96 3201 1131.55 3263.71C1081.15 3326.41 1015.5 3375.14 940.886 3405.22C866.27 3435.31 785.184 3445.75 705.381 3435.54C625.579 3425.33 549.73 3394.82 485.087 3346.93" stroke="black" stroke-linecap="round" stroke-linejoin="round"/>
<path d="M440.109 3309.01C384.684 3255.93 343.096 3190.09 318.974 3117.23C294.852 3044.38 288.931 2966.73 301.727 2891.06C314.523 2815.39 345.648 2744 392.383 2683.13C439.119 2622.26 500.044 2573.75 569.841 2541.84C639.638 2509.94 716.184 2495.6 792.796 2500.09C869.409 2504.57 943.759 2527.74 1009.36 2567.58C1074.95 2607.41 1129.8 2662.7 1169.11 2728.61C1208.42 2794.52 1231 2869.05 1234.88 2945.7" stroke="black" stroke-linecap="round" stroke-linejoin="round"/>
<path d="M536.808 2775.38H712.279C719.769 2775.38 726.952 2778.36 732.248 2783.65C737.544 2788.95 740.519 2796.13 740.519 2803.62V2893.9" stroke="black" stroke-linecap="round" stroke-linejoin="round"/>
<path d="M740.757 2947.84V3141C740.757 3144.7 740.026 3148.37 738.606 3151.79C737.186 3155.21 735.104 3158.32 732.481 3160.94C729.857 3163.55 726.744 3165.63 723.318 3167.04C719.892 3168.45 716.222 3169.17 712.517 3169.16H418.215C414.51 3169.17 410.84 3168.45 407.414 3167.04C403.988 3165.63 400.874 3163.55 398.251 3160.94C395.628 3158.32 393.546 3155.21 392.126 3151.79C390.706 3148.37 389.975 3144.7 389.975 3141V2803.62C389.975 2796.13 392.95 2788.95 398.246 2783.65C403.542 2778.36 410.725 2775.38 418.215 2775.38H491.196" stroke="black" stroke-linecap="round" stroke-linejoin="round"/>
<path d="M461.527 2840.27C461.543 2841.97 461.052 2843.64 460.117 2845.06C459.181 2846.48 457.844 2847.59 456.275 2848.25C454.707 2848.91 452.978 2849.08 451.308 2848.76C449.639 2848.43 448.105 2847.61 446.903 2846.41C445.7 2845.2 444.882 2843.67 444.554 2842C444.226 2840.33 444.402 2838.6 445.061 2837.03C445.719 2835.47 446.829 2834.13 448.25 2833.19C449.671 2832.26 451.338 2831.77 453.039 2831.78C455.291 2831.78 457.449 2832.68 459.041 2834.27C460.633 2835.86 461.527 2838.02 461.527 2840.27Z" stroke="black" stroke-linecap="round" stroke-linejoin="round"/>
<path d="M531.335 2848.76C536.023 2848.76 539.823 2844.96 539.823 2840.27C539.823 2835.58 536.023 2831.78 531.335 2831.78C526.647 2831.78 522.847 2835.58 522.847 2840.27C522.847 2844.96 526.647 2848.76 531.335 2848.76Z" stroke="black" stroke-linecap="round" stroke-linejoin="round"/>
<path d="M609.71 2848.76C614.397 2848.76 618.197 2844.96 618.197 2840.27C618.197 2835.58 614.397 2831.78 609.71 2831.78C605.022 2831.78 601.222 2835.58 601.222 2840.27C601.222 2844.96 605.022 2848.76 609.71 2848.76Z" stroke="black" stroke-linecap="round" stroke-linejoin="round"/>
<path d="M688.005 2848.76C692.693 2848.76 696.493 2844.96 696.493 2840.27C696.493 2835.58 692.693 2831.78 688.005 2831.78C683.317 2831.78 679.517 2835.58 679.517 2840.27C679.517 2844.96 683.317 2848.76 688.005 2848.76Z" stroke="black" stroke-linecap="round" stroke-linejoin="round"/>
<path d="M461.527 2907.38C461.543 2909.08 461.052 2910.75 460.117 2912.17C459.181 2913.59 457.844 2914.7 456.275 2915.36C454.707 2916.02 452.978 2916.19 451.308 2915.87C449.639 2915.54 448.105 2914.72 446.903 2913.52C445.7 2912.31 444.882 2910.78 444.554 2909.11C444.226 2907.44 444.402 2905.71 445.061 2904.14C445.719 2902.58 446.829 2901.24 448.25 2900.3C449.671 2899.37 451.338 2898.88 453.039 2898.89C455.291 2898.89 457.449 2899.79 459.041 2901.38C460.633 2902.97 461.527 2905.13 461.527 2907.38Z" stroke="black" stroke-linecap="round" stroke-linejoin="round"/>
<path d="M539.902 2907.38C539.918 2909.08 539.429 2910.74 538.497 2912.16C537.565 2913.58 536.233 2914.69 534.669 2915.35C533.105 2916.01 531.38 2916.19 529.713 2915.87C528.045 2915.55 526.512 2914.74 525.305 2913.55C524.099 2912.35 523.275 2910.82 522.938 2909.16C522.601 2907.5 522.766 2905.77 523.412 2904.2C524.058 2902.63 525.156 2901.29 526.567 2900.34C527.977 2899.4 529.637 2898.89 531.335 2898.89C532.456 2898.88 533.568 2899.09 534.607 2899.52C535.646 2899.94 536.591 2900.56 537.388 2901.35C538.185 2902.14 538.817 2903.08 539.248 2904.11C539.68 2905.15 539.902 2906.26 539.902 2907.38Z" stroke="black" stroke-linecap="round" stroke-linejoin="round"/>
<path d="M618.197 2907.38C618.213 2909.08 617.722 2910.75 616.787 2912.17C615.851 2913.59 614.514 2914.7 612.946 2915.36C611.377 2916.02 609.648 2916.19 607.978 2915.87C606.309 2915.54 604.775 2914.72 603.573 2913.52C602.37 2912.31 601.552 2910.78 601.224 2909.11C600.896 2907.44 601.072 2905.71 601.731 2904.14C602.389 2902.58 603.499 2901.24 604.92 2900.3C606.341 2899.37 608.008 2898.88 609.709 2898.89C611.961 2898.89 614.12 2899.79 615.711 2901.38C617.303 2902.97 618.197 2905.13 618.197 2907.38Z" stroke="black" stroke-linecap="round" stroke-linejoin="round"/>
<path d="M696.572 2907.38C696.588 2909.08 696.099 2910.74 695.167 2912.16C694.235 2913.58 692.903 2914.69 691.339 2915.35C689.775 2916.01 688.05 2916.19 686.383 2915.87C684.715 2915.55 683.182 2914.74 681.975 2913.55C680.769 2912.35 679.945 2910.82 679.608 2909.16C679.271 2907.5 679.436 2905.77 680.082 2904.2C680.728 2902.63 681.826 2901.29 683.237 2900.34C684.647 2899.4 686.307 2898.89 688.005 2898.89C689.126 2898.88 690.238 2899.09 691.277 2899.52C692.316 2899.94 693.261 2900.56 694.058 2901.35C694.855 2902.14 695.487 2903.08 695.918 2904.11C696.35 2905.15 696.572 2906.26 696.572 2907.38Z" stroke="black" stroke-linecap="round" stroke-linejoin="round"/>
<path d="M461.527 2974.49C461.527 2976.19 461.023 2977.85 460.078 2979.26C459.133 2980.67 457.79 2981.77 456.22 2982.41C454.65 2983.06 452.923 2983.22 451.259 2982.89C449.595 2982.55 448.069 2981.73 446.874 2980.52C445.679 2979.31 444.869 2977.78 444.548 2976.11C444.226 2974.45 444.407 2972.72 445.068 2971.16C445.729 2969.59 446.839 2968.26 448.258 2967.33C449.678 2966.4 451.342 2965.91 453.039 2965.92C454.161 2965.92 455.271 2966.15 456.306 2966.58C457.341 2967.01 458.28 2967.64 459.07 2968.44C459.859 2969.23 460.482 2970.18 460.904 2971.22C461.326 2972.26 461.538 2973.37 461.527 2974.49Z" stroke="black" stroke-linecap="round" stroke-linejoin="round"/>
<path d="M539.902 2974.49C539.902 2976.19 539.4 2977.84 538.458 2979.25C537.517 2980.66 536.179 2981.76 534.613 2982.41C533.048 2983.05 531.325 2983.22 529.663 2982.89C528.002 2982.56 526.475 2981.75 525.277 2980.55C524.079 2979.35 523.263 2977.82 522.932 2976.16C522.602 2974.5 522.771 2972.78 523.42 2971.21C524.068 2969.65 525.166 2968.31 526.575 2967.37C527.984 2966.43 529.64 2965.92 531.335 2965.92C532.463 2965.91 533.582 2966.13 534.626 2966.55C535.67 2966.98 536.619 2967.61 537.416 2968.41C538.214 2969.21 538.845 2970.16 539.271 2971.2C539.698 2972.24 539.913 2973.36 539.902 2974.49Z" stroke="black" stroke-linecap="round" stroke-linejoin="round"/>
<path d="M618.197 2974.49C618.197 2976.19 617.693 2977.85 616.748 2979.26C615.803 2980.67 614.46 2981.77 612.89 2982.41C611.32 2983.06 609.593 2983.22 607.929 2982.89C606.265 2982.55 604.739 2981.73 603.544 2980.52C602.349 2979.31 601.539 2977.78 601.218 2976.11C600.896 2974.45 601.077 2972.72 601.738 2971.16C602.399 2969.59 603.509 2968.26 604.928 2967.33C606.348 2966.4 608.012 2965.91 609.709 2965.92C610.831 2965.92 611.941 2966.15 612.976 2966.58C614.011 2967.01 614.95 2967.64 615.74 2968.44C616.529 2969.23 617.152 2970.18 617.574 2971.22C617.996 2972.26 618.208 2973.37 618.197 2974.49Z" stroke="black" stroke-linecap="round" stroke-linejoin="round"/>
<path d="M696.572 2974.49C696.572 2976.19 696.07 2977.84 695.128 2979.25C694.187 2980.66 692.849 2981.76 691.283 2982.41C689.718 2983.05 687.995 2983.22 686.333 2982.89C684.672 2982.56 683.145 2981.75 681.947 2980.55C680.749 2979.35 679.933 2977.82 679.602 2976.16C679.272 2974.5 679.441 2972.78 680.09 2971.21C680.738 2969.65 681.836 2968.31 683.245 2967.37C684.654 2966.43 686.31 2965.92 688.005 2965.92C689.133 2965.91 690.252 2966.13 691.296 2966.55C692.34 2966.98 693.289 2967.61 694.086 2968.41C694.884 2969.21 695.515 2970.16 695.942 2971.2C696.368 2972.24 696.583 2973.36 696.572 2974.49Z" stroke="black" stroke-linecap="round" stroke-linejoin="round"/>
<path d="M461.527 3041.6C461.527 3043.3 461.023 3044.96 460.078 3046.37C459.133 3047.78 457.79 3048.88 456.22 3049.52C454.65 3050.17 452.923 3050.33 451.259 3050C449.595 3049.66 448.069 3048.84 446.874 3047.63C445.679 3046.42 444.869 3044.89 444.548 3043.22C444.226 3041.56 444.407 3039.83 445.068 3038.27C445.729 3036.7 446.839 3035.37 448.258 3034.44C449.678 3033.51 451.342 3033.02 453.039 3033.03C454.161 3033.03 455.271 3033.26 456.306 3033.69C457.341 3034.12 458.28 3034.75 459.07 3035.55C459.859 3036.34 460.482 3037.29 460.904 3038.33C461.326 3039.37 461.538 3040.48 461.527 3041.6Z" stroke="black" stroke-linecap="round" stroke-linejoin="round"/>
<path d="M531.335 3050.09C536.023 3050.09 539.823 3046.29 539.823 3041.6C539.823 3036.91 536.023 3033.11 531.335 3033.11C526.647 3033.11 522.847 3036.91 522.847 3041.6C522.847 3046.29 526.647 3050.09 531.335 3050.09Z" stroke="black" stroke-linecap="round" stroke-linejoin="round"/>
<path d="M609.71 3050.09C614.397 3050.09 618.197 3046.29 618.197 3041.6C618.197 3036.91 614.397 3033.11 609.71 3033.11C605.022 3033.11 601.222 3036.91 601.222 3041.6C601.222 3046.29 605.022 3050.09 609.71 3050.09Z" stroke="black" stroke-linecap="round" stroke-linejoin="round"/>
<path d="M688.005 3050.09C692.693 3050.09 696.493 3046.29 696.493 3041.6C696.493 3036.91 692.693 3033.11 688.005 3033.11C683.317 3033.11 679.517 3036.91 679.517 3041.6C679.517 3046.29 683.317 3050.09 688.005 3050.09Z" stroke="black" stroke-linecap="round" stroke-linejoin="round"/>
<path d="M461.527 3108.63C461.543 3110.33 461.052 3112 460.117 3113.42C459.181 3114.84 457.844 3115.95 456.275 3116.61C454.707 3117.27 452.978 3117.45 451.308 3117.12C449.639 3116.79 448.105 3115.97 446.903 3114.77C445.7 3113.57 444.882 3112.03 444.554 3110.36C444.226 3108.69 444.402 3106.96 445.061 3105.4C445.719 3103.83 446.829 3102.49 448.25 3101.55C449.671 3100.62 451.338 3100.13 453.039 3100.14C455.291 3100.14 457.449 3101.04 459.041 3102.63C460.633 3104.22 461.527 3106.38 461.527 3108.63Z" stroke="black" stroke-linecap="round" stroke-linejoin="round"/>
<path d="M531.335 3117.12C536.023 3117.12 539.823 3113.32 539.823 3108.63C539.823 3103.94 536.023 3100.14 531.335 3100.14C526.647 3100.14 522.847 3103.94 522.847 3108.63C522.847 3113.32 526.647 3117.12 531.335 3117.12Z" stroke="black" stroke-linecap="round" stroke-linejoin="round"/>
<path d="M609.71 3117.12C614.397 3117.12 618.197 3113.32 618.197 3108.63C618.197 3103.94 614.397 3100.14 609.71 3100.14C605.022 3100.14 601.222 3103.94 601.222 3108.63C601.222 3113.32 605.022 3117.12 609.71 3117.12Z" stroke="black" stroke-linecap="round" stroke-linejoin="round"/>
<path d="M688.005 3117.12C692.693 3117.12 696.493 3113.32 696.493 3108.63C696.493 3103.94 692.693 3100.14 688.005 3100.14C683.317 3100.14 679.517 3103.94 679.517 3108.63C679.517 3113.32 683.317 3117.12 688.005 3117.12Z" stroke="black" stroke-linecap="round" stroke-linejoin="round"/>
<path d="M871.17 3196.21L775.264 3133.54C769.048 3129.39 764.726 3122.95 763.24 3115.62C761.754 3108.3 763.224 3100.68 767.331 3094.43L951.845 2812.03C955.997 2805.81 962.438 2801.49 969.765 2800.01C977.091 2798.52 984.707 2799.99 990.953 2804.1L1237.34 2965.05C1243.57 2969.19 1247.91 2975.63 1249.4 2982.96C1250.89 2990.3 1249.4 2997.92 1245.27 3004.16L1060.36 3286.32C1056.23 3292.56 1049.78 3296.89 1042.45 3298.38C1035.12 3299.87 1027.5 3298.38 1021.26 3294.26L914.641 3224.61" stroke="black" stroke-linecap="round" stroke-linejoin="round"/>
<path d="M991.429 2881.92C990.504 2883.34 989.177 2884.45 987.616 2885.12C986.056 2885.79 984.333 2885.98 982.665 2885.67C980.997 2885.35 979.46 2884.55 978.248 2883.36C977.037 2882.17 976.205 2880.65 975.86 2878.99C975.514 2877.33 975.67 2875.6 976.307 2874.03C976.944 2872.46 978.034 2871.11 979.438 2870.16C980.842 2869.2 982.498 2868.69 984.195 2868.68C985.892 2868.67 987.554 2869.16 988.97 2870.1C990.84 2871.36 992.144 2873.3 992.604 2875.51C993.063 2877.71 992.642 2880.01 991.429 2881.92Z" stroke="black" stroke-linecap="round" stroke-linejoin="round"/>
<path d="M1056.95 2924.75C1056.03 2926.15 1054.71 2927.24 1053.16 2927.89C1051.62 2928.53 1049.92 2928.71 1048.27 2928.39C1046.63 2928.08 1045.12 2927.28 1043.92 2926.1C1042.73 2924.93 1041.91 2923.43 1041.57 2921.79C1041.23 2920.15 1041.38 2918.44 1042.01 2916.89C1042.63 2915.34 1043.7 2914 1045.08 2913.06C1046.46 2912.11 1048.1 2911.59 1049.77 2911.57C1051.44 2911.55 1053.09 2912.02 1054.49 2912.93C1056.38 2914.18 1057.7 2916.12 1058.16 2918.34C1058.62 2920.55 1058.19 2922.86 1056.95 2924.75Z" stroke="black" stroke-linecap="round" stroke-linejoin="round"/>
<path d="M1122.56 2967.59C1121.95 2968.53 1121.16 2969.34 1120.24 2969.97C1119.31 2970.6 1118.28 2971.05 1117.18 2971.28C1116.09 2971.51 1114.96 2971.52 1113.86 2971.32C1112.76 2971.12 1111.71 2970.7 1110.78 2970.09C1109.84 2969.48 1109.03 2968.69 1108.4 2967.77C1107.76 2966.85 1107.32 2965.81 1107.09 2964.72C1106.85 2963.62 1106.84 2962.49 1107.04 2961.39C1107.25 2960.29 1107.67 2959.25 1108.28 2958.31C1109.51 2956.41 1111.44 2955.09 1113.65 2954.62C1115.86 2954.15 1118.16 2954.58 1120.06 2955.81C1121.95 2957.04 1123.28 2958.97 1123.75 2961.18C1124.21 2963.39 1123.79 2965.7 1122.56 2967.59Z" stroke="black" stroke-linecap="round" stroke-linejoin="round"/>
<path d="M1188.16 3010.43C1187.24 3011.83 1185.93 3012.93 1184.38 3013.59C1182.84 3014.25 1181.13 3014.44 1179.48 3014.13C1177.83 3013.82 1176.31 3013.03 1175.11 3011.85C1173.91 3010.67 1173.09 3009.17 1172.74 3007.53C1172.4 3005.88 1172.55 3004.17 1173.18 3002.62C1173.8 3001.06 1174.88 2999.72 1176.27 2998.78C1177.65 2997.83 1179.29 2997.32 1180.97 2997.3C1182.65 2997.28 1184.29 2997.77 1185.7 2998.69C1187.58 2999.92 1188.9 3001.85 1189.36 3004.05C1189.82 3006.25 1189.39 3008.54 1188.16 3010.43Z" stroke="black" stroke-linecap="round" stroke-linejoin="round"/>
<path d="M954.701 2938.08C953.775 2939.5 952.448 2940.62 950.888 2941.29C949.328 2941.95 947.604 2942.14 945.937 2941.83C944.269 2941.51 942.732 2940.71 941.52 2939.52C940.308 2938.34 939.477 2936.82 939.131 2935.15C938.786 2933.49 938.941 2931.77 939.579 2930.19C940.216 2928.62 941.305 2927.27 942.71 2926.32C944.114 2925.37 945.77 2924.85 947.467 2924.84C949.164 2924.83 950.826 2925.32 952.242 2926.26C954.112 2927.52 955.416 2929.46 955.876 2931.67C956.335 2933.88 955.913 2936.18 954.701 2938.08Z" stroke="black" stroke-linecap="round" stroke-linejoin="round"/>
<path d="M1020.7 2980.92C1019.78 2982.34 1018.45 2983.45 1016.89 2984.12C1015.33 2984.79 1013.6 2984.98 1011.94 2984.66C1010.27 2984.35 1008.73 2983.55 1007.52 2982.36C1006.31 2981.17 1005.48 2979.65 1005.13 2977.99C1004.79 2976.33 1004.94 2974.6 1005.58 2973.03C1006.22 2971.46 1007.31 2970.11 1008.71 2969.16C1010.11 2968.2 1011.77 2967.69 1013.47 2967.68C1015.16 2967.67 1016.83 2968.16 1018.24 2969.1C1020.11 2970.36 1021.42 2972.3 1021.88 2974.51C1022.33 2976.71 1021.91 2979.01 1020.7 2980.92Z" stroke="black" stroke-linecap="round" stroke-linejoin="round"/>
<path d="M1085.83 3023.99C1084.56 3025.78 1082.64 3027.01 1080.49 3027.42C1078.33 3027.83 1076.1 3027.39 1074.26 3026.19C1072.42 3024.98 1071.12 3023.12 1070.63 3020.98C1070.14 3018.84 1070.5 3016.59 1071.63 3014.71C1072.22 3013.73 1073 3012.88 1073.92 3012.21C1074.84 3011.54 1075.89 3011.06 1077.01 3010.81C1078.12 3010.55 1079.27 3010.52 1080.4 3010.72C1081.52 3010.93 1082.59 3011.35 1083.55 3011.98C1084.5 3012.6 1085.32 3013.41 1085.96 3014.36C1086.59 3015.31 1087.03 3016.38 1087.24 3017.5C1087.46 3018.62 1087.44 3019.77 1087.2 3020.89C1086.95 3022 1086.49 3023.06 1085.83 3023.99Z" stroke="black" stroke-linecap="round" stroke-linejoin="round"/>
<path d="M1151.43 3066.59C1150.83 3067.53 1150.04 3068.34 1149.12 3068.97C1148.21 3069.61 1147.17 3070.05 1146.08 3070.28C1144.98 3070.51 1143.86 3070.52 1142.76 3070.31C1141.66 3070.09 1140.62 3069.67 1139.69 3069.05C1138.71 3068.46 1137.86 3067.68 1137.19 3066.76C1136.52 3065.83 1136.04 3064.78 1135.79 3063.67C1135.53 3062.56 1135.5 3061.4 1135.71 3060.28C1135.91 3059.16 1136.33 3058.08 1136.96 3057.13C1137.58 3056.17 1138.39 3055.35 1139.34 3054.72C1140.29 3054.08 1141.36 3053.65 1142.48 3053.43C1143.6 3053.22 1144.75 3053.24 1145.87 3053.48C1146.99 3053.72 1148.04 3054.19 1148.97 3054.85C1149.91 3055.45 1150.72 3056.24 1151.36 3057.15C1151.99 3058.07 1152.43 3059.11 1152.66 3060.2C1152.89 3061.3 1152.9 3062.42 1152.69 3063.52C1152.48 3064.62 1152.05 3065.66 1151.43 3066.59Z" stroke="black" stroke-linecap="round" stroke-linejoin="round"/>
<path d="M917.973 2994.24C917.047 2995.64 915.728 2996.73 914.184 2997.38C912.64 2998.02 910.938 2998.2 909.294 2997.88C907.65 2997.57 906.136 2996.77 904.943 2995.59C903.75 2994.42 902.932 2992.92 902.591 2991.28C902.25 2989.64 902.401 2987.93 903.026 2986.38C903.651 2984.83 904.722 2983.49 906.103 2982.55C907.485 2981.6 909.115 2981.08 910.79 2981.06C912.464 2981.04 914.108 2981.51 915.514 2982.42C917.401 2983.67 918.718 2985.61 919.179 2987.83C919.639 2990.04 919.206 2992.35 917.973 2994.24Z" stroke="black" stroke-linecap="round" stroke-linejoin="round"/>
<path d="M983.576 3037.08C982.251 3038.77 980.341 3039.9 978.222 3040.25C976.103 3040.6 973.931 3040.14 972.136 3038.96C970.34 3037.78 969.052 3035.97 968.526 3033.89C968 3031.81 968.276 3029.61 969.297 3027.72C970.557 3025.85 972.498 3024.54 974.707 3024.09C976.915 3023.63 979.215 3024.05 981.117 3025.26C982.059 3025.87 982.871 3026.66 983.506 3027.59C984.141 3028.51 984.585 3029.56 984.814 3030.66C985.043 3031.76 985.051 3032.89 984.839 3033.99C984.626 3035.09 984.197 3036.14 983.576 3037.08Z" stroke="black" stroke-linecap="round" stroke-linejoin="round"/>
<path d="M1049.18 3079.92C1048.25 3081.31 1046.93 3082.4 1045.39 3083.05C1043.85 3083.7 1042.14 3083.87 1040.5 3083.56C1038.86 3083.24 1037.34 3082.44 1036.15 3081.27C1034.96 3080.09 1034.14 3078.59 1033.8 3076.95C1033.46 3075.31 1033.61 3073.61 1034.23 3072.05C1034.86 3070.5 1035.93 3069.17 1037.31 3068.22C1038.69 3067.27 1040.32 3066.76 1042 3066.73C1043.67 3066.71 1045.31 3067.19 1046.72 3068.1C1048.61 3069.34 1049.92 3071.29 1050.38 3073.5C1050.85 3075.71 1050.41 3078.02 1049.18 3079.92Z" stroke="black" stroke-linecap="round" stroke-linejoin="round"/>
<path d="M1114.7 3122.75C1113.78 3124.16 1112.47 3125.26 1110.93 3125.92C1109.38 3126.58 1107.68 3126.77 1106.03 3126.46C1104.38 3126.15 1102.85 3125.35 1101.65 3124.18C1100.46 3123 1099.63 3121.5 1099.29 3119.85C1098.94 3118.21 1099.09 3116.5 1099.72 3114.94C1100.35 3113.39 1101.42 3112.05 1102.81 3111.1C1104.2 3110.16 1105.83 3109.64 1107.51 3109.63C1109.19 3109.61 1110.84 3110.09 1112.24 3111.01C1113.18 3111.61 1113.99 3112.4 1114.63 3113.32C1115.26 3114.24 1115.71 3115.27 1115.93 3116.37C1116.16 3117.46 1116.17 3118.59 1115.96 3119.68C1115.75 3120.78 1115.32 3121.82 1114.7 3122.75Z" stroke="black" stroke-linecap="round" stroke-linejoin="round"/>
<path d="M881.324 3050.41C880.398 3051.83 879.071 3052.94 877.511 3053.61C875.951 3054.28 874.227 3054.47 872.56 3054.15C870.892 3053.84 869.355 3053.04 868.143 3051.85C866.932 3050.66 866.1 3049.14 865.755 3047.48C865.409 3045.82 865.564 3044.09 866.201 3042.52C866.838 3040.95 867.928 3039.6 869.333 3038.64C870.737 3037.69 872.393 3037.18 874.09 3037.17C875.787 3037.16 877.449 3037.65 878.865 3038.59C880.735 3039.85 882.039 3041.79 882.499 3044C882.958 3046.2 882.536 3048.5 881.324 3050.41Z" stroke="black" stroke-linecap="round" stroke-linejoin="round"/>
<path d="M946.848 3093.24C945.921 3094.64 944.603 3095.73 943.059 3096.38C941.515 3097.02 939.813 3097.2 938.169 3096.88C936.525 3096.57 935.011 3095.77 933.818 3094.59C932.625 3093.42 931.807 3091.92 931.466 3090.28C931.125 3088.64 931.276 3086.93 931.901 3085.38C932.526 3083.83 933.597 3082.49 934.978 3081.55C936.36 3080.6 937.99 3080.08 939.665 3080.06C941.339 3080.04 942.983 3080.51 944.388 3081.42C945.331 3082.03 946.143 3082.82 946.778 3083.75C947.413 3084.68 947.857 3085.72 948.086 3086.82C948.315 3087.92 948.323 3089.05 948.11 3090.16C947.898 3091.26 947.469 3092.31 946.848 3093.24Z" stroke="black" stroke-linecap="round" stroke-linejoin="round"/>
<path d="M1012.77 3136.08C1011.54 3137.96 1009.61 3139.28 1007.41 3139.74C1005.21 3140.2 1002.91 3139.77 1001.03 3138.54C999.621 3137.62 998.519 3136.31 997.86 3134.76C997.201 3133.22 997.014 3131.51 997.325 3129.86C997.635 3128.21 998.428 3126.69 999.603 3125.49C1000.78 3124.29 1002.28 3123.47 1003.93 3123.12C1005.57 3122.78 1007.28 3122.93 1008.84 3123.56C1010.39 3124.18 1011.73 3125.26 1012.68 3126.65C1013.62 3128.03 1014.14 3129.67 1014.15 3131.35C1014.17 3133.03 1013.69 3134.67 1012.77 3136.08Z" stroke="black" stroke-linecap="round" stroke-linejoin="round"/>
<path d="M1078.05 3178.92C1077.14 3180.32 1075.82 3181.42 1074.28 3182.08C1072.73 3182.74 1071.03 3182.93 1069.38 3182.62C1067.73 3182.31 1066.21 3181.52 1065.01 3180.34C1063.81 3179.16 1062.98 3177.66 1062.64 3176.02C1062.29 3174.37 1062.44 3172.66 1063.07 3171.11C1063.7 3169.55 1064.77 3168.21 1066.16 3167.27C1067.55 3166.32 1069.18 3165.81 1070.86 3165.79C1072.54 3165.77 1074.19 3166.26 1075.59 3167.17C1077.48 3168.41 1078.79 3170.34 1079.25 3172.54C1079.71 3174.74 1079.28 3177.03 1078.05 3178.92Z" stroke="black" stroke-linecap="round" stroke-linejoin="round"/>
<path d="M844.596 3106.57C843.67 3107.99 842.343 3109.11 840.783 3109.77C839.223 3110.44 837.499 3110.63 835.831 3110.32C834.163 3110 832.626 3109.2 831.415 3108.01C830.203 3106.83 829.372 3105.3 829.026 3103.64C828.681 3101.98 828.836 3100.25 829.473 3098.68C830.11 3097.11 831.2 3095.76 832.604 3094.81C834.009 3093.86 835.665 3093.34 837.362 3093.33C839.059 3093.32 840.72 3093.81 842.136 3094.75C844.023 3096 845.341 3097.94 845.802 3100.15C846.262 3102.37 845.829 3104.67 844.596 3106.57Z" stroke="black" stroke-linecap="round" stroke-linejoin="round"/>
<path d="M910.199 3149.41C909.273 3150.83 907.946 3151.94 906.386 3152.61C904.826 3153.28 903.102 3153.47 901.434 3153.15C899.767 3152.84 898.229 3152.04 897.018 3150.85C895.806 3149.66 894.975 3148.14 894.629 3146.48C894.284 3144.82 894.439 3143.09 895.076 3141.52C895.713 3139.95 896.803 3138.6 898.208 3137.64C899.612 3136.69 901.268 3136.18 902.965 3136.17C904.662 3136.16 906.324 3136.65 907.739 3137.59C909.61 3138.85 910.914 3140.79 911.373 3143C911.833 3145.2 911.411 3147.5 910.199 3149.41Z" stroke="black" stroke-linecap="round" stroke-linejoin="round"/>
<path d="M975.802 3192.24C974.884 3193.67 973.564 3194.79 972.008 3195.47C970.452 3196.14 968.731 3196.34 967.062 3196.04C965.394 3195.73 963.853 3194.94 962.635 3193.76C961.417 3192.58 960.576 3191.06 960.22 3189.41C959.864 3187.75 960.008 3186.02 960.634 3184.45C961.26 3182.87 962.34 3181.51 963.737 3180.55C965.134 3179.59 966.785 3179.06 968.48 3179.04C970.176 3179.02 971.841 3179.5 973.263 3180.42C975.163 3181.66 976.497 3183.59 976.973 3185.81C977.449 3188.02 977.027 3190.34 975.802 3192.24Z" stroke="black" stroke-linecap="round" stroke-linejoin="round"/>
<path d="M1041.33 3235.08C1040.72 3236.02 1039.94 3236.83 1039.02 3237.46C1038.1 3238.1 1037.06 3238.54 1035.97 3238.77C1034.88 3239 1033.75 3239.01 1032.65 3238.8C1031.56 3238.58 1030.51 3238.16 1029.59 3237.54C1028.61 3236.95 1027.76 3236.17 1027.09 3235.25C1026.42 3234.32 1025.94 3233.27 1025.68 3232.16C1025.43 3231.05 1025.4 3229.89 1025.6 3228.77C1025.8 3227.65 1026.23 3226.57 1026.85 3225.62C1027.48 3224.66 1028.29 3223.84 1029.24 3223.21C1030.18 3222.57 1031.25 3222.14 1032.37 3221.92C1033.5 3221.71 1034.65 3221.73 1035.76 3221.97C1036.88 3222.21 1037.93 3222.68 1038.87 3223.34C1039.81 3223.94 1040.62 3224.72 1041.25 3225.64C1041.88 3226.56 1042.33 3227.6 1042.56 3228.69C1042.79 3229.79 1042.8 3230.91 1042.58 3232.01C1042.37 3233.11 1041.94 3234.15 1041.33 3235.08Z" stroke="black" stroke-linecap="round" stroke-linejoin="round"/>
</g>
<g opacity="0.3">
<path d="M610.741 1387.01L742.661 1323.55L867.68 1583.1C904.026 1658.64 908.894 1745.51 881.211 1824.63C853.528 1903.75 795.562 1968.64 720.053 2005.04C644.519 2041.39 557.644 2046.25 478.524 2018.57C399.403 1990.89 334.512 1932.92 298.115 1857.41L256.23 1770.15" stroke="black" stroke-linecap="round" stroke-linejoin="round"/>
<path d="M243.855 1744.61L173.096 1597.78L579.883 1401.84" stroke="black" stroke-linecap="round" stroke-linejoin="round"/>
<path d="M973.105 1727.32C949.459 1736.44 923.951 1739.68 898.776 1736.76" stroke="black" stroke-linecap="round" stroke-linejoin="round"/>
<path d="M789.226 1420.17C800.403 1409.93 813.017 1401.37 826.668 1394.78C910.119 1354.56 1013.24 1395.26 1056.71 1485.77C1093.13 1561.45 1076.39 1648.07 1020.94 1697.81" stroke="black" stroke-linecap="round" stroke-linejoin="round"/>
<path d="M822.939 1490.13C832.018 1477.41 844.159 1467.17 858.24 1460.38C908.295 1436.59 970.011 1460.38 996.189 1514.96C1022.37 1569.54 1002.85 1632.68 952.797 1656.72C934.548 1665.55 913.954 1668.33 894.016 1664.65" stroke="black" stroke-linecap="round" stroke-linejoin="round"/>
<path d="M336.033 1704.47C407.427 1713.36 392.513 1755.32 331.352 1717.88C322.547 1789.27 280.504 1774.36 317.946 1713.2C246.552 1704.39 261.466 1662.35 322.627 1699.79C331.511 1628.64 373.475 1643.71 336.033 1704.47Z" stroke="black" stroke-linecap="round" stroke-linejoin="round"/>
<path d="M443.203 1652.91C514.597 1661.71 499.604 1703.76 438.443 1666.32C429.638 1737.71 387.595 1722.8 425.037 1661.64C353.643 1652.75 368.636 1610.71 429.797 1648.23C438.602 1576.99 480.645 1591.75 443.203 1652.91Z" stroke="black" stroke-linecap="round" stroke-linejoin="round"/>
<path d="M550.294 1601.27C621.688 1610.15 606.774 1652.2 545.614 1614.67C536.729 1686.07 494.765 1671.15 532.207 1609.99C460.813 1601.19 475.727 1559.15 536.888 1596.59C545.693 1525.43 587.736 1540.11 550.294 1601.27Z" stroke="black" stroke-linecap="round" stroke-linejoin="round"/>
<path d="M657.464 1549.71C728.858 1558.59 713.865 1600.55 652.704 1563.11C643.899 1634.51 601.856 1619.59 639.298 1558.43C567.904 1549.63 582.818 1507.58 643.979 1545.03C652.863 1473.87 694.906 1488.54 657.464 1549.71Z" stroke="black" stroke-linecap="round" stroke-linejoin="round"/>
<path d="M764.555 1498.14C835.949 1506.95 821.036 1548.99 759.875 1511.55C750.99 1582.94 708.947 1568.03 746.469 1506.87C675.075 1497.98 689.988 1455.94 751.149 1493.46C759.954 1422.23 801.997 1436.98 764.555 1498.14Z" stroke="black" stroke-linecap="round" stroke-linejoin="round"/>
<path d="M195.704 994.261C171.574 998.807 147.99 1005.88 125.341 1015.36" stroke="black" stroke-linecap="round" stroke-linejoin="round"/>
<path d="M313.425 1492.99C313.425 1492.99 272.968 1472.68 356.816 1362.81C440.664 1252.95 455.181 1119.84 374.189 1035.91C337.778 998.227 288.992 988.312 244.014 989.184" stroke="black" stroke-linecap="round" stroke-linejoin="round"/>
<path d="M506.823 1197.02C475.092 1266.27 420.516 1327.04 429.162 1368.29C440.744 1423.18 539.109 1402.95 539.109 1402.95" stroke="black" stroke-linecap="round" stroke-linejoin="round"/>
<path d="M434.953 977.761C434.953 977.761 536.174 1026.94 527.527 1125.31C526.609 1134.89 524.937 1144.39 522.53 1153.71" stroke="black" stroke-linecap="round" stroke-linejoin="round"/>
</g>
<g opacity="0.3">
<path d="M1061.63 63.284C1061.63 63.284 1004.84 -17.0739 880.292 5.05825C755.75 27.1904 720.053 178.625 720.053 178.625C720.053 178.625 638.664 149.75 561.4 226.855C465.414 322.523 511.503 400.422 511.503 400.422C511.503 400.422 382.835 435.881 365.146 560.106C347.456 684.332 387.278 786.346 546.962 817.442C706.647 848.538 764.396 826.644 764.396 826.644" stroke="black" stroke-linecap="round" stroke-linejoin="round"/>
<path d="M1105.98 107.628C1105.98 107.628 1212.43 214.084 1217.03 342.752C1221.63 471.419 1203.71 511.321 1203.71 511.321" stroke="black" stroke-linecap="round" stroke-linejoin="round"/>
<path d="M808.74 790.788C830.287 718.919 872.47 654.961 930.051 606.857C987.632 558.754 1058.07 528.622 1132.63 520.205" stroke="black" stroke-linecap="round" stroke-linejoin="round"/>
<path d="M808.74 835.211L1003.96 1083.58C1003.96 1083.58 1032.76 940.795 1345.07 785.235L1207.99 568.991" stroke="black" stroke-linecap="round" stroke-linejoin="round"/>
<path d="M1018.24 1089.14C1018.24 1089.14 1049.26 1081.2 1130.41 1041.54C1234.01 991.088 1377.51 830.293 1362.12 797.61" stroke="black" stroke-linecap="round" stroke-linejoin="round"/>
<path d="M501.111 530.438C501.111 530.438 481.676 411.448 578.772 386.223" stroke="black" stroke-linecap="round" stroke-linejoin="round"/>
<path d="M684.118 244.863C684.118 244.863 706.329 156.096 820.004 161.649" stroke="black" stroke-linecap="round" stroke-linejoin="round"/>
</g>
<path d="M1724.8 576.289L1776.21 385.905C1776.21 385.905 1889.41 432.153 1935.73 447.621C1969.57 458.228 2004 466.81 2038.86 473.323L1987.45 663.707L1724.8 576.289Z" fill="white" stroke="#263238" stroke-linecap="round" stroke-linejoin="round"/>
<path d="M2131.27 704.957L2141.51 535.119L2331.89 571.212V792.454L2131.27 704.957Z" fill="white" stroke="#263238" stroke-linecap="round" stroke-linejoin="round"/>
<path d="M2244.39 823.312L2311.34 591.758L2553.13 689.488L2455.4 859.326L2244.39 823.312Z" fill="white" stroke="#263238" stroke-linecap="round" stroke-linejoin="round"/>
<path d="M747.024 2637.51L2293.89 3389.84C2297.11 3391.45 2300.64 3392.3 2304.23 3392.35C2307.82 3392.39 2311.38 3391.62 2314.63 3390.09C2317.88 3388.57 2320.74 3386.32 2323 3383.53C2325.27 3380.74 2326.87 3377.48 2327.69 3373.98L2432.71 2920.87L748.055 2633.94C747.623 2633.92 747.195 2634.04 746.842 2634.29C746.488 2634.54 746.23 2634.9 746.11 2635.31C745.99 2635.73 746.015 2636.17 746.181 2636.57C746.347 2636.97 746.644 2637.3 747.024 2637.51Z" fill="#263238"/>
<path d="M780.341 2649.17L2308.41 3333.36L2363.38 3094.51L781.451 2645.68C780.989 2645.53 780.486 2645.58 780.055 2645.8C779.623 2646.02 779.298 2646.41 779.151 2646.87C779.004 2647.33 779.046 2647.84 779.27 2648.27C779.493 2648.7 779.878 2649.02 780.341 2649.17Z" fill="white" stroke="#263238" stroke-linecap="round" stroke-linejoin="round"/>
<path d="M793.747 2653.14L2314.68 3310.12L2363.38 3094.51L794.937 2649.57C794.489 2649.49 794.029 2649.58 793.639 2649.81C793.249 2650.05 792.956 2650.41 792.812 2650.84C792.669 2651.27 792.684 2651.74 792.855 2652.16C793.027 2652.59 793.343 2652.93 793.747 2653.14Z" fill="white" stroke="#263238" stroke-linecap="round" stroke-linejoin="round"/>
<path d="M730.127 2630.61L2321.02 3286.8L2368.06 3074.68L730.127 2630.61Z" fill="white" stroke="#263238" stroke-linecap="round" stroke-linejoin="round"/>
<path d="M796.603 2650.6L2453.1 3138.38L2469.92 3048.66L797.555 2646.95C797.099 2646.9 796.638 2647.01 796.259 2647.27C795.88 2647.53 795.607 2647.92 795.491 2648.36C795.375 2648.81 795.424 2649.28 795.628 2649.69C795.833 2650.1 796.179 2650.42 796.603 2650.6Z" fill="white" stroke="#263238" stroke-linecap="round" stroke-linejoin="round"/>
<path d="M797.238 2649.89L2469.36 3121.8L2486.18 3031.92L798.11 2646.16C797.616 2646.04 797.096 2646.13 796.664 2646.4C796.233 2646.66 795.925 2647.09 795.81 2647.59C795.694 2648.08 795.779 2648.6 796.047 2649.03C796.315 2649.46 796.743 2649.77 797.238 2649.89Z" fill="white" stroke="#263238" stroke-linecap="round" stroke-linejoin="round"/>
<path d="M797.793 2649.33L2484.91 3107.12L2501.65 3017.41L798.586 2645.68C798.146 2645.67 797.716 2645.82 797.371 2646.09C797.026 2646.37 796.786 2646.75 796.693 2647.18C796.599 2647.61 796.658 2648.06 796.858 2648.45C797.059 2648.84 797.389 2649.16 797.793 2649.33Z" fill="white" stroke="#263238" stroke-linecap="round" stroke-linejoin="round"/>
<path d="M2535.84 3045.09C2533.22 3055.37 2526.63 3064.2 2517.51 3069.62C2508.4 3075.05 2497.5 3076.64 2487.21 3074.05L731.952 2631.09C731.712 2631.01 731.489 2630.89 731.295 2630.74C731.101 2630.58 730.941 2630.38 730.823 2630.16C730.705 2629.94 730.632 2629.7 730.608 2629.45C730.584 2629.2 730.609 2628.95 730.683 2628.71L1391.47 381.304L3039.17 913.903C3048.77 917.035 3056.84 923.679 3061.75 932.505C3066.66 941.33 3068.06 951.687 3065.66 961.499L2535.84 3045.09Z" fill="#6DBE45" stroke="#263238" stroke-linecap="round" stroke-linejoin="round"/>
<path d="M850.704 2661.47L731.714 2631.09C731.474 2631.01 731.251 2630.89 731.057 2630.74C730.863 2630.58 730.703 2630.38 730.585 2630.16C730.467 2629.94 730.394 2629.7 730.37 2629.45C730.346 2629.2 730.371 2628.95 730.445 2628.71L1391.24 381.304L1513.64 413.035L852.925 2660.2C852.795 2660.66 852.489 2661.05 852.074 2661.29C851.658 2661.53 851.166 2661.59 850.704 2661.47Z" fill="#263238" stroke="#263238" stroke-linecap="round" stroke-linejoin="round"/>
<path d="M1659.6 1558.59C1659.6 1558.59 1601.53 1430 1500.23 1381.37C1398.93 1332.75 1401.63 1428.97 1468.5 1468.63C1535.37 1508.3 1631.99 1524.24 1659.6 1558.59Z" fill="#263238"/>
<path d="M2395.27 2159.33C2395.27 2159.33 2421.85 2176.7 2449.06 2260.23C2476.26 2343.76 2459.53 2445.22 2508.23 2466.48C2556.94 2487.74 2600.73 2465.69 2573.36 2360.19C2545.99 2254.68 2439.3 2154.17 2395.27 2159.33Z" fill="#263238"/>
<path d="M1549.89 2084.84C1549.89 2084.84 1518.16 2087.3 1454.3 2147.51C1390.44 2207.72 1356.17 2304.74 1303.1 2300.29C1250.03 2295.85 1222.35 2255.08 1297.07 2175.67C1371.8 2096.27 1513.64 2059.54 1549.89 2084.84Z" fill="#263238"/>
<path d="M2446.6 1529.48C2446.6 1529.48 2452.78 1502.82 2512.12 1456.18C2571.46 1409.54 2658.48 1392.72 2661.49 1347.42C2664.51 1302.13 2633.49 1272.94 2556.38 1326.24C2479.28 1379.55 2429.7 1495.37 2446.6 1529.48Z" fill="#263238"/>
<path d="M1846.17 2668.69C1801.55 2695.42 1748.35 2703.95 1697.61 2692.51C1646.86 2681.06 1602.47 2650.53 1573.64 2607.23C1544.81 2563.94 1533.75 2511.21 1542.75 2459.97C1551.76 2408.74 1580.14 2362.94 1622.01 2332.08C1663.88 2301.21 1716.02 2287.64 1767.62 2294.19C1819.23 2300.74 1866.33 2326.9 1899.16 2367.25C1931.99 2407.59 1948.03 2459.03 1943.96 2510.88C1939.88 2562.74 1916 2611.04 1877.27 2645.76" stroke="#263238" stroke-linecap="round" stroke-linejoin="round"/>
<path d="M1828.25 2350.9C1824.83 2390.57 1749.95 2467.91 1749.95 2467.91C1749.95 2467.91 1719.96 2343.77 1738.13 2319.81C1750.27 2303.94 1796.83 2307.04 1817.85 2326.39" stroke="#263238" stroke-linecap="round" stroke-linejoin="round"/>
<path d="M1725.91 2471.16C1725.91 2471.16 1610.18 2417.22 1602.8 2388.03C1596.22 2362.09 1654.44 2309.65 1683.32 2337.02C1712.19 2364.39 1725.91 2471.16 1725.91 2471.16Z" stroke="#263238" stroke-linecap="round" stroke-linejoin="round"/>
<path d="M1660.31 2463.71C1689.27 2477.27 1713.54 2491.95 1713.54 2491.95C1713.54 2491.95 1599.23 2548.82 1571.78 2536.45C1547.35 2525.42 1542.67 2447.21 1582.09 2441.26C1594.95 2439.43 1613.83 2444.27 1632.63 2451.49" stroke="#263238" stroke-linecap="round" stroke-linejoin="round"/>
<path d="M1722.03 2514.63C1722.03 2514.63 1695.21 2639.49 1668.4 2653.22C1644.6 2665.43 1580.51 2620.3 1600.74 2586.11C1620.96 2551.92 1722.03 2514.63 1722.03 2514.63Z" stroke="#263238" stroke-linecap="round" stroke-linejoin="round"/>
<path d="M1745.11 2522.09C1745.11 2522.09 1825.94 2620.93 1820 2650.44C1814.68 2676.78 1739.4 2698.67 1725.28 2661.47C1711.16 2624.26 1745.11 2522.09 1745.11 2522.09Z" stroke="#263238" stroke-linecap="round" stroke-linejoin="round"/>
<path d="M1765.26 2508.76C1765.26 2508.76 1892.98 2507.1 1912.33 2530.26C1929.55 2550.81 1899.8 2623.23 1861.96 2611.17C1824.12 2599.12 1765.26 2508.76 1765.26 2508.76Z" stroke="#263238" stroke-linecap="round" stroke-linejoin="round"/>
<path d="M1767.48 2484.57C1767.48 2484.57 1845.78 2383.75 1875.92 2383.03C1902.73 2382.32 1940.81 2450.78 1907.65 2472.83C1874.49 2494.88 1767.48 2484.57 1767.48 2484.57Z" stroke="#263238" stroke-linecap="round" stroke-linejoin="round"/>
<path d="M1655.31 785.473C1649.24 793.925 1643.93 802.897 1639.45 812.286C1621.77 849.931 1618.56 892.76 1630.4 932.624C1637.07 955.47 1651.74 978.872 1648.89 1003.46C1645.56 1032.02 1626.52 1053.99 1625.96 1084.69C1625.01 1140.78 1685.7 1207.17 1751.06 1234.62C1807.7 1258.42 1874.41 1258.42 1921.61 1248.5" stroke="#263238" stroke-linecap="round" stroke-linejoin="round"/>
<path d="M1972.62 1231.21C2026.32 1207.41 2062.58 1169.65 2059.4 1102.38C2057.98 1071.68 2044.81 1025.59 2065.35 999.259C2089.15 967.528 2143.09 935.797 2133.57 847.903C2124.05 760.01 1991.58 690.995 1916.06 682.428C1847.52 674.495 1827.29 696.707 1798.02 706.226C1754.63 720.505 1715.52 730.976 1683.95 755.567" stroke="#263238" stroke-linecap="round" stroke-linejoin="round"/>
<path d="M1849.71 1069.88C1913.95 1058.55 1956.83 997.275 1945.49 933.034C1934.16 868.792 1872.89 825.907 1808.64 837.246C1744.4 848.585 1701.52 909.855 1712.86 974.096C1724.19 1038.34 1785.46 1081.22 1849.71 1069.88Z" stroke="#263238" stroke-linecap="round" stroke-linejoin="round"/>
<path d="M1906.14 884.87C1918.48 898.744 1926.84 915.69 1930.34 933.92C1933.84 952.15 1932.36 970.988 1926.05 988.445C1919.73 1005.9 1908.83 1021.33 1894.48 1033.11C1880.12 1044.88 1862.86 1052.56 1844.51 1055.34" stroke="#263238" stroke-linecap="round" stroke-linejoin="round"/>
<path d="M1790.17 1048.76C1771.05 1040.93 1754.74 1027.53 1743.37 1010.28" stroke="#263238" stroke-linecap="round" stroke-linejoin="round"/>
<path d="M2839.66 1339.81C2839.66 1339.81 2770.25 1352.9 2737.57 1338.7" stroke="#263238" stroke-linecap="round" stroke-linejoin="round"/>
<path d="M2853.14 1459.67C2829.07 1471.17 2801.83 1474.24 2775.8 1468.4" stroke="#263238" stroke-linecap="round" stroke-linejoin="round"/>
<path d="M2745.26 1633.55C2745.26 1633.55 2754.46 1651.4 2796.9 1635.22" stroke="#263238" stroke-linecap="round" stroke-linejoin="round"/>
<path d="M2793.65 1541.06C2775.46 1541.74 2757.28 1539.68 2739.71 1534.95" stroke="#263238" stroke-linecap="round" stroke-linejoin="round"/>
<path d="M2823.32 1640.53C2840.29 1613.01 2858.54 1589.77 2867.98 1558.19C2878.21 1524.16 2881.7 1488.15 2897.01 1455.7C2918.27 1410.49 2920.81 1388.43 2916.69 1339.65C2914.7 1315.85 2924.62 1290.55 2912.88 1268.25C2899.15 1241.52 2868.3 1192.5 2808.88 1192.02C2749.47 1191.55 2701.71 1235.81 2698.7 1268.33C2695.68 1300.86 2715.04 1333.22 2713.05 1351.23C2711.07 1369.24 2696.55 1385.02 2697.19 1407.47C2697.82 1466.65 2707.98 1516.07 2696.63 1576.2C2691.89 1604.46 2685.45 1632.41 2677.36 1659.89C2666.73 1693.37 2662.29 1735.01 2694.33 1758.57C2719.96 1777.37 2762.55 1738.66 2777.23 1721.92C2797.3 1699 2805.15 1671.39 2820.22 1646.25L2823.32 1640.53Z" stroke="#263238" stroke-linecap="round" stroke-linejoin="round"/>
<path d="M2808.88 1192.1C2808.88 1192.1 2811.82 1153.95 2825.14 1141.41C2838.47 1128.88 2886.7 1129.51 2920.33 1101.11C2953.97 1072.72 2946.91 1064.94 2922.24 1072C2897.57 1079.06 2950.16 1060.42 2961.9 1017.66C2973.64 974.905 2932.55 998.941 2901.45 1031.78C2870.36 1064.62 2852.43 1057.01 2855.68 1046.93C2858.94 1036.86 2887.41 988.232 2878.21 953.566C2869.01 918.901 2827.92 943.73 2818.72 991.643C2809.52 1039.56 2814.83 1110.16 2800 1086.84C2785.16 1063.51 2810.63 1033.05 2793.81 927.706C2776.99 822.36 2716.62 830.848 2715.75 867.894C2714.88 904.939 2752.4 939.288 2727.73 935.083C2703.06 930.879 2637.77 913.665 2642.85 967.449C2647.93 1021.23 2701.16 971.256 2721.78 1005.84C2742.4 1040.43 2780.48 1043.28 2777.31 1087.07C2774.14 1130.86 2745.58 1091.91 2717.89 1092.23C2690.21 1092.55 2672.2 1118.49 2709.48 1147.28C2746.77 1176.08 2766.52 1132.05 2782.46 1152.04C2791.72 1162.53 2797.3 1175.77 2798.33 1189.72L2808.88 1192.1Z" stroke="#263238" stroke-linecap="round" stroke-linejoin="round"/>
<path d="M2073.92 2642.51L2093.51 2864.23C2093.97 2869.68 2095.54 2874.98 2098.15 2879.8C2100.75 2884.61 2104.32 2888.84 2108.63 2892.2C2112.95 2895.57 2117.91 2898.01 2123.21 2899.37C2128.52 2900.72 2134.04 2900.97 2139.44 2900.08L2490.46 2845.19C2495.77 2844.38 2500.86 2842.51 2505.42 2839.67C2509.98 2836.84 2513.92 2833.12 2517 2828.72C2520.08 2824.32 2522.23 2819.34 2523.33 2814.09C2524.42 2808.83 2524.44 2803.41 2523.38 2798.15L2458.26 2462.52C2456.32 2452.56 2450.65 2443.72 2442.4 2437.82C2434.15 2431.92 2423.96 2429.4 2413.91 2430.79L2391.54 2433.72M2367.75 2436.82L2295.8 2446.18C2292.38 2446.74 2288.87 2446.02 2285.94 2444.16C2283.02 2442.3 2280.88 2439.43 2279.93 2436.1L2275.57 2421.03C2274.9 2418.65 2274.86 2416.13 2275.44 2413.73C2276.02 2411.33 2277.22 2409.12 2278.9 2407.31L2281.6 2404.45C2286.37 2399.43 2289.9 2393.37 2291.92 2386.75C2293.95 2380.12 2294.41 2373.12 2293.26 2366.29C2291.31 2354.83 2284.96 2344.58 2275.57 2337.72C2266.18 2330.86 2254.48 2327.93 2242.96 2329.57L2214.01 2333.61C2207.77 2334.49 2201.79 2336.68 2196.45 2340.04C2191.12 2343.39 2186.55 2347.84 2183.06 2353.08C2179.56 2358.32 2177.21 2364.25 2176.16 2370.46C2175.11 2376.67 2175.38 2383.04 2176.97 2389.14L2178 2392.95C2179.72 2399.64 2182.98 2405.83 2187.51 2411.05C2192.04 2416.27 2197.72 2420.36 2204.09 2423.01L2219.96 2429.52C2222.18 2430.45 2224.12 2431.93 2225.62 2433.82C2227.12 2435.7 2228.12 2437.93 2228.53 2440.31C2228.84 2442.18 2228.77 2444.11 2228.33 2445.96C2227.89 2447.81 2227.07 2449.56 2225.94 2451.09C2224.81 2452.62 2223.38 2453.91 2221.74 2454.88C2220.1 2455.85 2218.28 2456.48 2216.39 2456.73L2097 2472.59C2086.77 2473.87 2077.44 2479.08 2070.98 2487.12C2064.52 2495.16 2061.45 2505.4 2062.42 2515.67L2072.02 2623.79M2233.29 2399.85C2229.93 2398.99 2226.9 2397.16 2224.59 2394.58C2222.27 2392 2220.77 2388.79 2220.28 2385.37C2219.78 2381.94 2220.31 2378.44 2221.81 2375.31C2223.3 2372.18 2225.69 2369.57 2228.67 2367.8C2231.64 2366.02 2235.08 2365.18 2238.54 2365.36C2242 2365.54 2245.33 2366.74 2248.11 2368.81C2250.89 2370.88 2252.99 2373.73 2254.15 2377C2255.31 2380.26 2255.47 2383.8 2254.63 2387.16C2253.33 2391.49 2250.42 2395.16 2246.49 2397.41C2242.56 2399.65 2237.92 2400.3 2233.52 2399.21L2233.29 2399.85Z" stroke="#263238" stroke-linecap="round" stroke-linejoin="round"/>
<path d="M2408.36 2796.64L2455.96 2788.71C2458.94 2788.19 2461.79 2787.07 2464.33 2785.42C2466.87 2783.78 2469.05 2781.63 2470.74 2779.12C2472.42 2776.61 2473.59 2773.78 2474.16 2770.81C2474.73 2767.83 2474.69 2764.77 2474.04 2761.82L2413.68 2486.16C2412.45 2480.58 2409.14 2475.68 2404.42 2472.46C2399.7 2469.25 2393.93 2467.96 2388.29 2468.86L2125.01 2510.75C2119.29 2511.63 2114.14 2514.71 2110.66 2519.34C2107.18 2523.96 2105.63 2529.76 2106.36 2535.5L2140.47 2818.53C2140.83 2821.54 2141.79 2824.45 2143.31 2827.07C2144.82 2829.69 2146.85 2831.98 2149.28 2833.79C2151.71 2835.6 2154.48 2836.9 2157.43 2837.61C2160.37 2838.31 2163.43 2838.41 2166.41 2837.89L2384.56 2800.69" stroke="#263238" stroke-linecap="round" stroke-linejoin="round"/>
<path d="M1183.95 2505.35C1133.74 2514.48 1084.8 2528.2 1069.96 2564.13C1040.21 2635.92 1130.73 2659.33 1211.4 2654.25C1292.08 2649.17 1359.27 2553.11 1380.92 2490.52C1396.13 2452.18 1415.56 2415.65 1438.83 2381.6" stroke="#263238" stroke-linecap="round" stroke-linejoin="round"/>
<path d="M1461.68 2348.52C1484.58 2315.52 1511.64 2285.61 1542.19 2259.52C1602.48 2212.56 1704.97 2233.1 1749.24 2193.36C1793.5 2153.62 1717.03 2108.56 1594.15 2156.48C1541.54 2178.89 1497.19 2217.08 1467.23 2265.79C1414.8 2348.76 1346.34 2439.04 1306.12 2474.1C1290.25 2487.9 1255.51 2493.61 1216.95 2499.88" stroke="#263238" stroke-linecap="round" stroke-linejoin="round"/>
<path d="M1270.58 2561.83C1257.76 2567.88 1244.5 2572.95 1230.92 2576.99C1135.72 2606.49 1085.51 2602.21 1090.98 2580.87C1096.46 2559.53 1140.48 2542.56 1140.48 2542.56" stroke="#263238" stroke-linecap="round" stroke-linejoin="round"/>
<path d="M1326.27 2504.88C1326.27 2504.88 1326.27 2521.69 1302.47 2541.53" stroke="#263238" stroke-linecap="round" stroke-linejoin="round"/>
<path d="M2483.4 931.593C2469.9 891.166 2446.54 854.741 2415.42 825.613C2399.16 809.913 2379.86 797.71 2358.7 789.757C2295.72 768.577 2223.85 811.096 2206.95 867.576C2190.05 924.057 2206.55 1047.41 2206.55 1047.41C2206.55 1047.41 2151.03 1025.67 2137.38 1070.26C2123.74 1114.84 2178.71 1136.57 2194.1 1145.62C2209.49 1154.66 2230.19 1182.74 2230.19 1182.74C2230.19 1182.74 2254.78 1309.19 2269.22 1324.18C2283.66 1339.17 2529.89 1221.53 2550.67 1198.92C2566.62 1181.63 2510.61 1010.76 2483.4 931.593Z" stroke="#263238" stroke-linecap="round" stroke-linejoin="round"/>
<path d="M2403.36 1239.14L2547.34 1168.54" stroke="#263238" stroke-linecap="round" stroke-linejoin="round"/>
<path d="M2269.38 1304.82L2362.27 1259.29" stroke="#263238" stroke-linecap="round" stroke-linejoin="round"/>
<path d="M2312.93 802.053C2312.93 802.053 2299.6 1041.7 2255.5 1189.8" stroke="#263238" stroke-linecap="round" stroke-linejoin="round"/>
<path d="M2339.43 813.476C2339.43 813.476 2334.19 1033.53 2277.95 1204.87" stroke="#263238" stroke-linecap="round" stroke-linejoin="round"/>
<path d="M2362.11 1091.75C2352.43 1134.9 2338.23 1176.91 2319.75 1217.09" stroke="#263238" stroke-linecap="round" stroke-linejoin="round"/>
<path d="M2402.89 855.995C2394.81 927.339 2383.05 998.219 2367.67 1068.35" stroke="#263238" stroke-linecap="round" stroke-linejoin="round"/>
<path d="M2439.38 894.785C2439.38 894.785 2416.93 1079.46 2347.28 1230.34" stroke="#263238" stroke-linecap="round" stroke-linejoin="round"/>
<path d="M2476.66 991.009C2476.66 991.009 2451.36 1102.07 2410.11 1190.67" stroke="#263238" stroke-linecap="round" stroke-linejoin="round"/>
<path d="M2246.46 1093.1C2243.6 1105.08 2240.58 1116.9 2237.25 1127.93" stroke="#263238" stroke-linecap="round" stroke-linejoin="round"/>
<path d="M2283.02 822.202C2278.02 903.835 2267.84 985.07 2252.56 1065.42" stroke="#263238" stroke-linecap="round" stroke-linejoin="round"/>
<path d="M2357.04 884.314C2396.4 902.356 2432.49 926.833 2463.81 956.739" stroke="#263238" stroke-linecap="round" stroke-linejoin="round"/>
<path d="M2263.19 857.423C2292.56 860.612 2321.26 868.374 2348.23 880.427" stroke="#263238" stroke-linecap="round" stroke-linejoin="round"/>
<path d="M2257.56 891.533C2257.56 891.533 2414.15 926.992 2496.1 1036.22" stroke="#263238" stroke-linecap="round" stroke-linejoin="round"/>
<path d="M2240.51 939.843C2240.51 939.843 2341.33 939.288 2506.33 1093.02" stroke="#263238" stroke-linecap="round" stroke-linejoin="round"/>
<path d="M2485.15 1127.13C2487.66 1129.91 2490.02 1132.82 2492.21 1135.86" stroke="#263238" stroke-linecap="round" stroke-linejoin="round"/>
<path d="M2356.08 1026.71C2356.08 1026.71 2430.1 1074.3 2471.66 1113.41" stroke="#263238" stroke-linecap="round" stroke-linejoin="round"/>
<path d="M2277.95 1071.76C2277.95 1071.76 2400.98 1118.65 2440.65 1181.39" stroke="#263238" stroke-linecap="round" stroke-linejoin="round"/>
<path d="M2044.01 2157.51C2044.01 2157.51 1994.43 2128.23 1962.31 2179.48C1930.18 2230.72 1956.6 2294.58 1986.11 2318.78C2015.61 2342.97 2036.32 2326.71 2036.32 2326.71C2036.32 2326.71 2062.97 2362.09 2088.2 2356.62C2113.42 2351.14 2171.81 2299.5 2176.01 2245.56C2180.22 2191.62 2094.31 2165.2 2094.31 2165.2" stroke="#263238" stroke-linecap="round" stroke-linejoin="round"/>
<path d="M2057.26 2179.96C2057.26 2179.96 2057.82 2168.22 2061.31 2145.37C2064.8 2122.52 2068.21 2109.04 2081.61 2112.45C2095.02 2115.86 2088.67 2149.97 2073.68 2181.78" stroke="#263238" stroke-linecap="round" stroke-linejoin="round"/>
<path d="M2012.28 2166.55C2017.46 2171.12 2022.18 2176.16 2026.4 2181.62C2033.29 2180.63 2040.31 2181.6 2046.68 2184.4C2053.05 2187.21 2058.5 2191.74 2062.42 2197.49C2068.97 2192.76 2076.78 2190.11 2084.85 2189.85C2092.92 2189.6 2100.88 2191.76 2107.71 2196.06" stroke="#263238" stroke-linecap="round" stroke-linejoin="round"/>
<path d="M2056.55 2216.29C2056.55 2216.29 2046.79 2286.49 2040.68 2310.29" stroke="#263238" stroke-linecap="round" stroke-linejoin="round"/>
<path d="M2008.4 2184.4C2008.4 2184.4 1974.29 2202.64 1975.08 2273.09" stroke="#263238" stroke-linecap="round" stroke-linejoin="round"/>
<path d="M2119.93 2208.04C2119.93 2208.04 2149.84 2212.4 2127.47 2277.77C2105.09 2343.13 2090.82 2344.32 2090.82 2344.32" stroke="#263238" stroke-linecap="round" stroke-linejoin="round"/>
<path d="M1570.35 1220.58C1570.35 1220.58 1530.22 1196.78 1504.12 1238.27C1478.02 1279.76 1499.52 1331.56 1523.39 1351.23C1547.27 1370.9 1564.17 1357.74 1564.17 1357.74C1564.17 1357.74 1585.74 1386.45 1606.13 1382.01C1626.52 1377.57 1673.88 1335.76 1677.52 1292.29C1681.17 1248.82 1611.37 1227.16 1611.37 1227.16" stroke="#263238" stroke-linecap="round" stroke-linejoin="round"/>
<path d="M1581.14 1239.14C1581.14 1239.14 1581.62 1229.62 1584.47 1211.06C1587.33 1192.5 1590.03 1181.63 1600.9 1184.41C1611.76 1187.18 1606.61 1214.79 1594.23 1240.57" stroke="#263238" stroke-linecap="round" stroke-linejoin="round"/>
<path d="M1544.26 1227.88C1548.47 1231.55 1552.32 1235.61 1555.76 1240.01C1561.32 1239.23 1566.99 1240.01 1572.13 1242.26C1577.27 1244.52 1581.68 1248.16 1584.87 1252.79C1590.19 1248.97 1596.51 1246.82 1603.05 1246.61C1609.59 1246.39 1616.05 1248.13 1621.6 1251.6" stroke="#263238" stroke-linecap="round" stroke-linejoin="round"/>
<path d="M1580.59 1268.18C1580.59 1268.18 1572.66 1325.05 1567.74 1344.33" stroke="#263238" stroke-linecap="round" stroke-linejoin="round"/>
<path d="M1541.56 1242.32C1541.56 1242.32 1513.95 1257.07 1514.59 1314.19" stroke="#263238" stroke-linecap="round" stroke-linejoin="round"/>
<path d="M1631.99 1261.43C1631.99 1261.43 1656.19 1265 1638.02 1317.99C1619.85 1370.98 1608.35 1371.93 1608.35 1371.93" stroke="#263238" stroke-linecap="round" stroke-linejoin="round"/>
<path d="M1489.44 1116.74C1458.19 1125.86 1428.6 1118.72 1423.44 1100.88C1418.29 1083.03 1439.31 1061.21 1470.64 1052.01C1501.98 1042.81 1531.48 1050.03 1536.64 1067.88C1541.8 1085.72 1520.46 1107.62 1489.44 1116.74Z" stroke="#263238" stroke-linecap="round" stroke-linejoin="round"/>
<path d="M1531.33 917.869C1527.12 934.369 1515.46 945.554 1504.67 942.857C1493.88 940.16 1488.81 924.612 1493.25 908.112C1497.69 891.612 1509.11 880.348 1519.98 883.045C1530.85 885.742 1535.61 901.29 1531.33 917.869Z" stroke="#263238" stroke-linecap="round" stroke-linejoin="round"/>
<path d="M2550.99 1587.47C2546.79 1604.04 2535.12 1615.23 2524.34 1612.53C2513.55 1609.84 2508.47 1594.29 2512.91 1577.71C2517.36 1561.13 2528.78 1550.02 2539.65 1552.72C2550.51 1555.42 2555.27 1570.97 2550.99 1587.47Z" stroke="#263238" stroke-linecap="round" stroke-linejoin="round"/>
<path d="M1469.21 2643.62C1465.01 2660.2 1453.35 2671.38 1442.48 2668.69C1431.61 2665.99 1426.61 2650.44 1431.14 2633.94C1435.66 2617.44 1447 2606.18 1457.79 2608.87C1468.58 2611.57 1473.42 2627.36 1469.21 2643.62Z" stroke="#263238" stroke-linecap="round" stroke-linejoin="round"/>
<path d="M2356.72 2233.26C2352.51 2249.84 2340.85 2261.03 2330.07 2258.33C2319.28 2255.63 2314.2 2240.09 2318.64 2223.51C2323.08 2206.93 2334.51 2195.82 2345.38 2198.52C2356.24 2201.22 2361.32 2216.76 2356.72 2233.26Z" stroke="#263238" stroke-linecap="round" stroke-linejoin="round"/>
<path d="M1590.03 711.144C1587.97 719.077 1598.99 729.389 1614.78 733.435C1630.56 737.481 1645.08 734.07 1647.14 725.502C1649.21 716.935 1638.26 707.257 1622.47 703.212C1606.69 699.166 1591.85 702.894 1590.03 711.144Z" stroke="#263238" stroke-linecap="round" stroke-linejoin="round"/>
<path d="M2654.83 1821.32C2652.69 1829.25 2663.79 1839.57 2679.58 1843.53C2695.36 1847.5 2709.8 1844.17 2711.94 1835.6C2714.09 1827.03 2702.98 1817.35 2687.19 1813.31C2671.41 1809.26 2657.05 1813.07 2654.83 1821.32Z" stroke="#263238" stroke-linecap="round" stroke-linejoin="round"/>
<path d="M1276.13 1920.48C1274.07 1928.41 1285.1 1938.64 1300.88 1942.69C1316.67 1946.74 1331.18 1943.32 1333.25 1934.76C1335.31 1926.19 1324.28 1916.51 1308.58 1912.47C1292.87 1908.42 1278.27 1912.15 1276.13 1920.48Z" stroke="#263238" stroke-linecap="round" stroke-linejoin="round"/>
<path d="M2585.34 2154.65L2597.63 2004.96L2576.85 2003.22L2631.66 1700.82L2548.61 1694L2549.09 1693.13L2352.12 1677.26C2355.18 1673.87 2357.99 1670.27 2360.53 1666.47C2370.52 1651.51 2376.45 1634.21 2377.74 1616.26C2380.16 1593.41 2375.92 1570.35 2365.52 1549.86C2361.59 1542.45 2357.14 1535.32 2352.2 1528.53L2381.07 1527.34L2382.98 1491.32C2383.51 1481.32 2383.21 1471.29 2382.1 1461.34C2380.73 1448.62 2377.22 1436.23 2371.71 1424.69C2364.84 1410.33 2354.17 1398.12 2340.85 1389.39C2337.12 1386.88 2333.2 1384.68 2329.11 1382.8C2316.8 1377.43 2303.65 1374.24 2290.24 1373.36C2272.71 1371.62 2255 1373.59 2238.28 1379.15L2238.84 1372.57L2117.87 1362.65L2030.61 1355.51L1989.83 1352.18L1961.99 1349.96L1838.88 1339.89L1821.42 1553.04L1838.88 1339.81L1704.02 1328.86L1677.05 1658.54L1708.78 1661.16C1701.18 1667.96 1694.48 1675.72 1688.87 1684.24C1677.22 1657.11 1655.86 1635.3 1628.98 1623.08C1608.42 1614.18 1586.45 1608.97 1564.09 1607.69C1528.31 1604.76 1497.93 1609.44 1473.97 1621.65C1448.8 1634.33 1428.79 1655.32 1417.33 1681.07C1406.36 1706.2 1399.84 1733.04 1398.06 1760.4L1386.95 1896.12C1384.47 1923.22 1386.69 1950.54 1393.54 1976.88C1398.32 1994.68 1406.98 2011.2 1418.9 2025.26C1430.81 2039.31 1445.69 2050.56 1462.47 2058.19C1482.73 2066.98 1504.37 2072.18 1526.41 2073.58C1562.5 2076.51 1591.38 2072.07 1614.78 2060.01C1634.11 2050.27 1650.38 2035.4 1661.82 2017.02C1670.53 2037.16 1684.58 2054.55 1702.43 2067.31C1709.08 2072.07 1716.17 2076.16 1723.61 2079.53C1744.05 2088.38 1765.88 2093.61 1788.11 2095C1824.2 2097.93 1853.47 2093.65 1877.67 2081.75C1900.18 2070.78 1918.77 2053.14 1930.89 2031.22C1939.16 2054.71 1954.48 2075.07 1974.76 2089.52C1981.4 2094.32 1988.49 2098.43 1995.94 2101.82C2016.21 2110.6 2037.84 2115.83 2059.88 2117.29C2095.97 2120.22 2125.32 2115.86 2149.44 2103.96C2164.71 2096.51 2178.22 2085.91 2189.1 2072.86L2185.14 2121.97L2512.04 2148.62L2585.34 2154.65ZM1555.12 1850.83L1556.95 1828.62L1655.39 1836.55L1653.57 1858.84L1555.12 1850.83ZM1937 1679.48L1981.27 1683.13C1971.4 1692.04 1963.04 1702.49 1956.52 1714.07C1951.92 1701.56 1945.33 1689.88 1937 1679.48ZM2184.34 1678.37C2177.96 1673.91 2171.19 1670.03 2164.11 1666.79C2147.17 1659.43 2129.24 1654.62 2110.89 1652.51L2120.8 1531.06L2148.09 1532.89C2159.72 1533.9 2171.43 1532.42 2182.44 1528.53L2182.91 1529.64C2185.91 1535.11 2189.22 1540.41 2192.83 1545.5L2163.96 1547.48L2162.21 1582.71C2160.75 1603.55 2163.44 1624.47 2170.14 1644.26C2177 1663.91 2190.27 1680.68 2207.82 1691.86C2211.79 1694.39 2215.92 1696.64 2220.2 1698.6L2218.85 1714.47C2209.98 1700.17 2198.23 1687.88 2184.34 1678.37ZM2469.44 1849.48L2468.97 1985.68L2445.17 1896.68L2469.44 1849.48Z" fill="white"/>
<path d="M1720.04 1621.97L1740.59 1371.3L1796.12 1375.82L1778.67 1589.05L1836.18 1593.73L1833.16 1631.17L1720.04 1621.97Z" fill="#263238"/>
<path d="M1854.66 1632.92L1875.13 1382.33L1987.77 1391.53L1984.68 1429.29L1927.48 1424.61L1922.41 1486.8L1966.04 1490.37L1962.86 1528.76L1919.23 1525.19L1913.12 1600.08L1970.95 1604.76L1967.94 1642.2L1854.66 1632.92Z" fill="#263238"/>
<path d="M2015.54 1646.09L2032.67 1436.67L1994.91 1433.57L1998.32 1392.4L2129.21 1403.11L2125.88 1444.28L2088.44 1441.19L2071.22 1650.69L2015.54 1646.09Z" fill="#263238"/>
<path d="M2150.79 1492.99L2148.41 1477.12C2151.43 1477.64 2154.53 1477.27 2157.35 1476.06C2160.17 1474.85 2162.57 1472.85 2164.27 1470.3C2167.26 1464.21 2168.96 1457.56 2169.27 1450.79L2147.93 1449.04L2151.58 1404.78L2195.84 1408.42C2195.29 1414.61 2194.73 1420.56 2194.18 1426.35C2193.62 1432.14 2192.99 1437.54 2192.35 1442.69C2191.53 1456.51 2187.51 1469.96 2180.61 1481.96C2175.06 1490.53 2165.07 1494.26 2150.79 1492.99Z" fill="#263238"/>
<path d="M2267.48 1670.44C2253.85 1669.82 2240.59 1665.87 2228.84 1658.94C2218.69 1652.35 2211.04 1642.55 2207.11 1631.09C2202.36 1616.22 2200.58 1600.56 2201.87 1585.01L2249.47 1581.83C2248.71 1590.56 2248.98 1599.35 2250.26 1608.01C2250.89 1613.45 2253.07 1618.6 2256.53 1622.84C2259.47 1625.99 2263.5 1627.89 2267.79 1628.16C2270.02 1628.65 2272.34 1628.45 2274.45 1627.57C2276.55 1626.68 2278.33 1625.17 2279.53 1623.24C2281.65 1619.49 2282.9 1615.32 2283.18 1611.03C2284.27 1601.79 2282.44 1592.44 2277.95 1584.29C2272.84 1575.81 2266.66 1568.02 2259.54 1561.13L2239.47 1540.5C2230.76 1531.9 2223.43 1522 2217.74 1511.15C2211.81 1499.17 2209.49 1485.72 2211.08 1472.44C2211.22 1463.39 2213.34 1454.47 2217.29 1446.32C2221.23 1438.17 2226.91 1430.97 2233.92 1425.24C2249.29 1414.54 2268.12 1410.01 2286.67 1412.55C2297.88 1412.99 2308.8 1416.27 2318.4 1422.07C2325.79 1426.76 2331.7 1433.45 2335.46 1441.35C2339.07 1448.83 2341.37 1456.88 2342.28 1465.14C2343.15 1473.04 2343.39 1481 2343 1488.94L2294.84 1490.92C2295.2 1484.42 2295.2 1477.91 2294.84 1471.41C2294.83 1466.85 2293.66 1462.38 2291.43 1458.4C2290.33 1456.91 2288.92 1455.68 2287.28 1454.8C2285.65 1453.92 2283.84 1453.42 2281.99 1453.32C2279.69 1453.02 2277.35 1453.4 2275.25 1454.4C2273.16 1455.4 2271.39 1456.98 2270.17 1458.96C2267.54 1462.7 2265.95 1467.08 2265.57 1471.65C2264.51 1479.71 2266.19 1487.89 2270.33 1494.89C2274.96 1502.03 2280.27 1508.7 2286.2 1514.8L2305.47 1534.71C2315.49 1544.67 2323.94 1556.09 2330.54 1568.59C2337.45 1582.34 2340.2 1597.8 2338.47 1613.09C2337.77 1624.42 2334.07 1635.37 2327.76 1644.82C2321.67 1653.92 2313.15 1661.15 2303.17 1665.68C2291.9 1670.38 2279.59 1672.03 2267.48 1670.44Z" fill="#263238"/>
<path d="M1529.34 2034.07C1500.86 2031.69 1478.73 2024.71 1463.03 2012.97C1447.42 2001.55 1436.21 1985.11 1431.3 1966.41C1425.86 1944.48 1424.25 1921.78 1426.54 1899.3L1437.64 1763.57C1439.07 1740.72 1444.44 1718.28 1453.51 1697.25C1461.31 1679.68 1474.96 1665.36 1492.14 1656.72C1509.59 1647.83 1532.54 1644.55 1560.99 1646.88C1589.45 1649.21 1610.84 1655.55 1625.17 1665.92C1639.67 1675.78 1650.32 1690.36 1655.31 1707.17C1660.62 1725.85 1662.34 1745.36 1660.39 1764.68L1657.77 1797.2L1576.46 1790.54L1579.48 1752.94C1580.08 1745.79 1580.29 1738.61 1580.11 1731.44C1580.08 1725.2 1578.2 1719.1 1574.72 1713.91C1572.44 1711.25 1569.6 1709.12 1566.41 1707.68C1563.21 1706.24 1559.74 1705.52 1556.23 1705.58C1552.74 1705.01 1549.15 1705.19 1545.73 1706.12C1542.31 1707.05 1539.13 1708.71 1536.4 1710.98C1531.69 1715.53 1528.43 1721.39 1527.04 1727.79C1525.34 1735.02 1524.2 1742.37 1523.63 1749.77L1509.11 1926.82C1508.35 1934.53 1508.35 1942.29 1509.11 1949.99C1509.63 1956.38 1512.06 1962.46 1516.1 1967.44C1518.39 1969.89 1521.15 1971.85 1524.22 1973.22C1527.28 1974.58 1530.59 1975.31 1533.94 1975.37C1537.32 1975.99 1540.79 1975.84 1544.1 1974.94C1547.41 1974.03 1550.47 1972.39 1553.06 1970.14C1557.54 1965.42 1560.55 1959.49 1561.71 1953.08C1563.26 1945.92 1564.32 1938.65 1564.88 1931.35L1568.13 1891.68L1649.44 1898.35L1646.83 1930.87C1645.55 1950.46 1640.71 1969.65 1632.55 1987.51C1625.04 2003.69 1612.25 2016.83 1596.29 2024.79C1579.87 2033.28 1557.5 2036.37 1529.34 2034.07Z" fill="#263238"/>
<path d="M1791.04 2055.49C1767.68 2054.75 1744.96 2047.71 1725.28 2035.11C1709.81 2023.96 1698.62 2007.87 1693.55 1989.49C1687.69 1967.55 1685.91 1944.72 1688.31 1922.14L1699.74 1782.21C1700.98 1759.56 1706.36 1737.33 1715.6 1716.61C1723.67 1699.51 1737.36 1685.71 1754.39 1677.5C1771.61 1669.01 1794.06 1666 1822.53 1668.3C1846.06 1669.04 1868.96 1675.99 1888.93 1688.45C1904.34 1699.38 1915.53 1715.25 1920.66 1733.43C1926.55 1755.36 1928.33 1778.19 1925.9 1800.77L1914.47 1940.71C1913.24 1963.36 1907.86 1985.6 1898.61 2006.31C1890.54 2023.65 1876.72 2037.66 1859.5 2045.97C1837.93 2055.17 1814.3 2058.46 1791.04 2055.49ZM1795.8 1996.47C1799.23 1997.07 1802.75 1996.93 1806.13 1996.07C1809.51 1995.21 1812.66 1993.64 1815.39 1991.48C1819.99 1987.22 1823.22 1981.7 1824.68 1975.61C1826.52 1968.84 1827.71 1961.9 1828.25 1954.91L1843.08 1773.64C1843.72 1766.55 1843.72 1759.4 1843.08 1752.31C1842.55 1746.09 1840.27 1740.14 1836.5 1735.17C1834.14 1732.63 1831.28 1730.62 1828.09 1729.25C1824.91 1727.88 1821.48 1727.2 1818.01 1727.24C1814.71 1726.72 1811.34 1726.91 1808.11 1727.78C1804.89 1728.66 1801.88 1730.2 1799.29 1732.32C1794.73 1736.58 1791.53 1742.1 1790.09 1748.18C1788.22 1755.06 1787 1762.1 1786.44 1769.2L1771.61 1950.46C1771.09 1957.49 1771.09 1964.54 1771.61 1971.56C1771.94 1977.8 1774.06 1983.8 1777.71 1988.86C1780.01 1991.34 1782.82 1993.3 1785.94 1994.62C1789.05 1995.93 1792.42 1996.56 1795.8 1996.47Z" fill="#263238"/>
<path d="M2063.37 2077.78C2040.03 2077.06 2017.33 2070.01 1997.69 2057.4C1982.22 2046.25 1971.03 2030.16 1965.96 2011.78C1960.17 1989.83 1958.4 1967.02 1960.72 1944.43L1972.22 1804.5C1973.39 1781.84 1978.77 1759.59 1988.09 1738.9C1996.14 1721.79 2009.84 1707.98 2026.88 1699.79C2048.34 1690.69 2071.84 1687.52 2094.94 1690.59C2118.49 1691.32 2141.43 1698.27 2161.42 1710.74C2176.98 1721.59 2188.33 1737.48 2193.54 1755.72C2199.4 1777.66 2201.17 1800.48 2198.78 1823.07L2187.28 1963C2186.05 1985.63 2180.67 2007.84 2171.41 2028.52C2163.33 2045.83 2149.56 2059.83 2132.38 2068.18C2110.65 2077.5 2086.82 2080.81 2063.37 2077.78ZM2068.21 2018.76C2071.64 2019.33 2075.16 2019.17 2078.53 2018.31C2081.9 2017.45 2085.06 2015.91 2087.8 2013.77C2092.35 2009.47 2095.57 2003.97 2097.08 1997.9C2098.85 1991.11 2100.04 1984.19 2100.65 1977.2L2115.41 1795.7C2116.05 1788.6 2116.05 1781.46 2115.41 1774.36C2114.92 1768.13 2112.63 1762.18 2108.82 1757.22C2106.47 1754.69 2103.6 1752.67 2100.42 1751.3C2097.24 1749.94 2093.8 1749.25 2090.34 1749.29C2087.05 1748.79 2083.69 1748.98 2080.48 1749.85C2077.27 1750.73 2074.28 1752.27 2071.7 1754.37C2067.13 1758.64 2063.9 1764.16 2062.42 1770.23C2060.62 1777.12 2059.42 1784.16 2058.85 1791.26L2044.01 1972.28C2043.46 1979.27 2043.46 1986.3 2044.01 1993.3C2044.26 1999.56 2046.36 2005.6 2050.04 2010.67C2052.32 2013.23 2055.12 2015.28 2058.26 2016.67C2061.39 2018.07 2064.78 2018.78 2068.21 2018.76Z" fill="#263238"/>
<path d="M2228.37 2085.64L2259.15 1709.15L2342.36 1715.97L2329.59 1869.79L2405.43 1721.13L2486.74 1727.79L2403.13 1892.24L2459.21 2104.52L2374.57 2097.61L2333.79 1926.74L2323.8 1940.94L2311.42 2092.46L2228.37 2085.64Z" fill="#263238"/>
<path d="M2477.45 2106.02L2483.25 2035.34L2554.64 2041.21L2548.85 2111.89L2477.45 2106.02ZM2508.55 2012.18L2509.58 1730.57L2584.86 1736.76L2534.57 2014.4L2508.55 2012.18Z" fill="#263238"/>
</svg>
