<svg width="896" height="791" viewBox="0 0 896 791" fill="none" xmlns="http://www.w3.org/2000/svg">
<path d="M481.895 481.29H416.051V393.083H462.283L481.895 411.049V481.29Z" fill="black"/>
<path d="M485.752 478.304H419.908V390.12H466.14L485.752 408.086V478.304Z" fill="white" stroke="#263238" stroke-linecap="round" stroke-linejoin="round"/>
<path d="M466.14 390.12L461.319 411.214L485.752 408.086L466.14 390.12Z" fill="black" stroke="#263238" stroke-linecap="round" stroke-linejoin="round"/>
<path d="M466.14 390.12V408.086H485.752L466.14 390.12Z" fill="white" stroke="#263238" stroke-linecap="round" stroke-linejoin="round"/>
<path d="M432.489 421.043H470.02" stroke="#263238" stroke-linecap="round" stroke-linejoin="round"/>
<path d="M432.489 430.238H470.02" stroke="#263238" stroke-linecap="round" stroke-linejoin="round"/>
<path d="M432.489 439.432H470.02" stroke="#263238" stroke-linecap="round" stroke-linejoin="round"/>
<path d="M432.489 448.651H470.02" stroke="#263238" stroke-linecap="round" stroke-linejoin="round"/>
<path d="M432.489 457.845H470.02" stroke="#263238" stroke-linecap="round" stroke-linejoin="round"/>
<path d="M798.58 481.29H732.736V393.083H778.968L798.58 411.049V481.29Z" fill="black"/>
<path d="M802.413 478.304H736.569V390.12H782.801L802.413 408.086V478.304Z" fill="white" stroke="#263238" stroke-linecap="round" stroke-linejoin="round"/>
<path d="M782.801 390.12L778.004 411.214L802.413 408.086L782.801 390.12Z" fill="black" stroke="#263238" stroke-linecap="round" stroke-linejoin="round"/>
<path d="M782.801 390.12V408.086H802.413L782.801 390.12Z" fill="white" stroke="#263238" stroke-linecap="round" stroke-linejoin="round"/>
<path d="M749.173 421.043H786.704" stroke="#263238" stroke-linecap="round" stroke-linejoin="round"/>
<path d="M749.173 430.238H786.704" stroke="#263238" stroke-linecap="round" stroke-linejoin="round"/>
<path d="M749.173 439.432H786.704" stroke="#263238" stroke-linecap="round" stroke-linejoin="round"/>
<path d="M749.173 448.651H786.704" stroke="#263238" stroke-linecap="round" stroke-linejoin="round"/>
<path d="M749.173 457.845H786.704" stroke="#263238" stroke-linecap="round" stroke-linejoin="round"/>
<path d="M159.708 481.29H93.8641V393.083H140.096L159.708 411.049V481.29Z" fill="black"/>
<path d="M163.564 478.304H97.7206V390.12H143.952L163.564 408.086V478.304Z" fill="white" stroke="#263238" stroke-linecap="round" stroke-linejoin="round"/>
<path d="M143.952 390.12L139.132 411.214L163.564 408.086L143.952 390.12Z" fill="black" stroke="#263238" stroke-linecap="round" stroke-linejoin="round"/>
<path d="M143.952 390.12V408.086H163.564L143.952 390.12Z" fill="white" stroke="#263238" stroke-linecap="round" stroke-linejoin="round"/>
<path d="M110.325 421.043H147.856" stroke="#263238" stroke-linecap="round" stroke-linejoin="round"/>
<path d="M110.325 430.238H147.856" stroke="#263238" stroke-linecap="round" stroke-linejoin="round"/>
<path d="M110.325 439.432H147.856" stroke="#263238" stroke-linecap="round" stroke-linejoin="round"/>
<path d="M110.325 448.651H147.856" stroke="#263238" stroke-linecap="round" stroke-linejoin="round"/>
<path d="M110.325 457.845H147.856" stroke="#263238" stroke-linecap="round" stroke-linejoin="round"/>
<path d="M481.895 701.678H416.051V613.471H462.283L481.895 631.437V701.678Z" fill="black"/>
<path d="M485.752 698.692H419.908V610.508H466.14L485.752 628.474V698.692Z" fill="white" stroke="#263238" stroke-linecap="round" stroke-linejoin="round"/>
<path d="M466.14 610.508L461.319 631.602L485.752 628.474L466.14 610.508Z" fill="black" stroke="#263238" stroke-linecap="round" stroke-linejoin="round"/>
<path d="M466.14 610.508V628.474H485.752L466.14 610.508Z" fill="white" stroke="#263238" stroke-linecap="round" stroke-linejoin="round"/>
<path d="M432.489 641.431H470.02" stroke="#263238" stroke-linecap="round" stroke-linejoin="round"/>
<path d="M432.489 650.626H470.02" stroke="#263238" stroke-linecap="round" stroke-linejoin="round"/>
<path d="M432.489 659.844H470.02" stroke="#263238" stroke-linecap="round" stroke-linejoin="round"/>
<path d="M432.489 669.039H470.02" stroke="#263238" stroke-linecap="round" stroke-linejoin="round"/>
<path d="M432.489 678.233H470.02" stroke="#263238" stroke-linecap="round" stroke-linejoin="round"/>
<path d="M798.58 701.678H732.736V613.471H778.968L798.58 631.437V701.678Z" fill="black"/>
<path d="M802.413 698.692H736.569V610.508H782.801L802.413 628.474V698.692Z" fill="white" stroke="#263238" stroke-linecap="round" stroke-linejoin="round"/>
<path d="M782.801 610.508L778.004 631.602L802.413 628.474L782.801 610.508Z" fill="black" stroke="#263238" stroke-linecap="round" stroke-linejoin="round"/>
<path d="M782.801 610.508V628.474H802.413L782.801 610.508Z" fill="white" stroke="#263238" stroke-linecap="round" stroke-linejoin="round"/>
<path d="M749.173 641.431H786.704" stroke="#263238" stroke-linecap="round" stroke-linejoin="round"/>
<path d="M749.173 650.626H786.704" stroke="#263238" stroke-linecap="round" stroke-linejoin="round"/>
<path d="M749.173 659.844H786.704" stroke="#263238" stroke-linecap="round" stroke-linejoin="round"/>
<path d="M749.173 669.039H786.704" stroke="#263238" stroke-linecap="round" stroke-linejoin="round"/>
<path d="M749.173 678.233H786.704" stroke="#263238" stroke-linecap="round" stroke-linejoin="round"/>
<path d="M159.708 701.678H93.8641V613.471H140.096L159.708 631.437V701.678Z" fill="black"/>
<path d="M163.564 698.692H97.7206V610.508H143.952L163.564 628.474V698.692Z" fill="white" stroke="#263238" stroke-linecap="round" stroke-linejoin="round"/>
<path d="M143.952 610.508L139.132 631.602L163.564 628.474L143.952 610.508Z" fill="black" stroke="#263238" stroke-linecap="round" stroke-linejoin="round"/>
<path d="M143.952 610.508V628.474H163.564L143.952 610.508Z" fill="white" stroke="#263238" stroke-linecap="round" stroke-linejoin="round"/>
<path d="M110.325 641.431H147.856" stroke="#263238" stroke-linecap="round" stroke-linejoin="round"/>
<path d="M110.325 650.626H147.856" stroke="#263238" stroke-linecap="round" stroke-linejoin="round"/>
<path d="M110.325 659.844H147.856" stroke="#263238" stroke-linecap="round" stroke-linejoin="round"/>
<path d="M110.325 669.039H147.856" stroke="#263238" stroke-linecap="round" stroke-linejoin="round"/>
<path d="M110.325 678.233H147.856" stroke="#263238" stroke-linecap="round" stroke-linejoin="round"/>
<path d="M318.038 587.228H252.195V499.044H298.45L318.038 517.01V587.228Z" fill="black"/>
<path d="M321.895 584.265H256.051V496.058H302.283L321.895 514.024V584.265Z" fill="#6DBE45" stroke="#263238" stroke-linecap="round" stroke-linejoin="round"/>
<path d="M302.283 496.058L297.486 517.151L321.895 514.024L302.283 496.058Z" fill="black" stroke="#263238" stroke-linecap="round" stroke-linejoin="round"/>
<path d="M302.283 496.058V514.024H321.895L302.283 496.058Z" fill="white" stroke="#263238" stroke-linecap="round" stroke-linejoin="round"/>
<path d="M268.656 527.004H306.186" stroke="#263238" stroke-linecap="round" stroke-linejoin="round"/>
<path d="M268.656 536.199H306.186" stroke="#263238" stroke-linecap="round" stroke-linejoin="round"/>
<path d="M268.656 545.394H306.186" stroke="#263238" stroke-linecap="round" stroke-linejoin="round"/>
<path d="M268.656 554.588H306.186" stroke="#263238" stroke-linecap="round" stroke-linejoin="round"/>
<path d="M268.656 563.783H306.186" stroke="#263238" stroke-linecap="round" stroke-linejoin="round"/>
<path d="M481.895 260.902H416.051V172.695H462.283L481.895 190.661V260.902Z" fill="black"/>
<path d="M485.752 257.915H419.908V169.732H466.14L485.752 187.698V257.915Z" fill="white" stroke="#263238" stroke-linecap="round" stroke-linejoin="round"/>
<path d="M466.14 169.732L461.319 190.825L485.752 187.698L466.14 169.732Z" fill="black" stroke="#263238" stroke-linecap="round" stroke-linejoin="round"/>
<path d="M466.14 169.732V187.698H485.752L466.14 169.732Z" fill="white" stroke="#263238" stroke-linecap="round" stroke-linejoin="round"/>
<path d="M432.489 200.655H470.02" stroke="#263238" stroke-linecap="round" stroke-linejoin="round"/>
<path d="M432.489 209.85H470.02" stroke="#263238" stroke-linecap="round" stroke-linejoin="round"/>
<path d="M432.489 219.044H470.02" stroke="#263238" stroke-linecap="round" stroke-linejoin="round"/>
<path d="M432.489 228.239H470.02" stroke="#263238" stroke-linecap="round" stroke-linejoin="round"/>
<path d="M432.489 237.457H470.02" stroke="#263238" stroke-linecap="round" stroke-linejoin="round"/>
<path d="M640.226 146.451H574.382V58.2679H620.637L640.226 76.2104V146.451Z" fill="black"/>
<path d="M644.082 143.488H578.239V55.2814H624.47L644.082 73.2473V143.488Z" fill="white" stroke="#263238" stroke-linecap="round" stroke-linejoin="round"/>
<path d="M624.47 55.2814L619.673 76.3749L644.082 73.2473L624.47 55.2814Z" fill="black" stroke="#263238" stroke-linecap="round" stroke-linejoin="round"/>
<path d="M624.47 55.2814V73.2473H644.082L624.47 55.2814Z" fill="white" stroke="#263238" stroke-linecap="round" stroke-linejoin="round"/>
<path d="M590.843 86.2045H628.374" stroke="#263238" stroke-linecap="round" stroke-linejoin="round"/>
<path d="M590.843 95.4225H628.374" stroke="#263238" stroke-linecap="round" stroke-linejoin="round"/>
<path d="M590.843 104.617H628.374" stroke="#263238" stroke-linecap="round" stroke-linejoin="round"/>
<path d="M590.843 113.812H628.374" stroke="#263238" stroke-linecap="round" stroke-linejoin="round"/>
<path d="M590.843 123.006H628.374" stroke="#263238" stroke-linecap="round" stroke-linejoin="round"/>
<path d="M798.58 260.902H732.736V172.695H778.968L798.58 190.661V260.902Z" fill="black"/>
<path d="M802.413 257.915H736.569V169.732H782.801L802.413 187.698V257.915Z" fill="#6DBE45" stroke="#263238" stroke-linecap="round" stroke-linejoin="round"/>
<path d="M782.801 169.732L778.004 190.825L802.413 187.698L782.801 169.732Z" fill="black" stroke="#263238" stroke-linecap="round" stroke-linejoin="round"/>
<path d="M782.801 169.732V187.698H802.413L782.801 169.732Z" fill="white" stroke="#263238" stroke-linecap="round" stroke-linejoin="round"/>
<path d="M749.173 200.655H786.704" stroke="#263238" stroke-linecap="round" stroke-linejoin="round"/>
<path d="M749.173 209.85H786.704" stroke="#263238" stroke-linecap="round" stroke-linejoin="round"/>
<path d="M749.173 219.044H786.704" stroke="#263238" stroke-linecap="round" stroke-linejoin="round"/>
<path d="M749.173 228.239H786.704" stroke="#263238" stroke-linecap="round" stroke-linejoin="round"/>
<path d="M749.173 237.457H786.704" stroke="#263238" stroke-linecap="round" stroke-linejoin="round"/>
<path d="M159.708 260.902H93.8641V172.695H140.096L159.708 190.661V260.902Z" fill="black"/>
<path d="M163.564 257.915H97.7206V169.732H143.952L163.564 187.698V257.915Z" fill="white" stroke="#263238" stroke-linecap="round" stroke-linejoin="round"/>
<path d="M143.952 169.732L139.132 190.825L163.564 187.698L143.952 169.732Z" fill="black" stroke="#263238" stroke-linecap="round" stroke-linejoin="round"/>
<path d="M143.952 169.732V187.698H163.564L143.952 169.732Z" fill="white" stroke="#263238" stroke-linecap="round" stroke-linejoin="round"/>
<path d="M110.325 200.655H147.856" stroke="#263238" stroke-linecap="round" stroke-linejoin="round"/>
<path d="M110.325 209.85H147.856" stroke="#263238" stroke-linecap="round" stroke-linejoin="round"/>
<path d="M110.325 219.044H147.856" stroke="#263238" stroke-linecap="round" stroke-linejoin="round"/>
<path d="M110.325 228.239H147.856" stroke="#263238" stroke-linecap="round" stroke-linejoin="round"/>
<path d="M110.325 237.457H147.856" stroke="#263238" stroke-linecap="round" stroke-linejoin="round"/>
<path d="M608.644 698.692C673.243 698.692 725.611 688.627 725.611 676.211C725.611 663.795 673.243 653.73 608.644 653.73C544.045 653.73 491.677 663.795 491.677 676.211C491.677 688.627 544.045 698.692 608.644 698.692Z" fill="#6DBE45"/>
<path opacity="0.5" d="M608.644 698.692C673.243 698.692 725.611 688.627 725.611 676.211C725.611 663.795 673.243 653.73 608.644 653.73C544.045 653.73 491.677 663.795 491.677 676.211C491.677 688.627 544.045 698.692 608.644 698.692Z" fill="white"/>
<path d="M519.92 367.968C519.771 368.118 519.595 368.237 519.402 368.321C518.922 368.546 518.372 368.57 517.874 368.389C517.376 368.209 516.97 367.837 516.745 367.357L512.042 357.457C511.868 356.982 511.878 356.46 512.069 355.992C512.261 355.525 512.621 355.146 513.079 354.93C513.536 354.715 514.057 354.679 514.54 354.829C515.023 354.978 515.432 355.304 515.687 355.74L520.39 365.64C520.571 366.028 520.623 366.463 520.538 366.882C520.453 367.301 520.237 367.682 519.92 367.968Z" fill="white" stroke="#263238" stroke-miterlimit="10"/>
<path d="M524.153 392.401C529.196 393.079 533.951 395.147 537.886 398.374C544.47 403.759 558.815 410.931 577.368 415.117C595.922 419.303 600.672 419.82 600.672 419.82L595.969 394.118C595.969 394.118 569.655 394.706 558.344 392.918C547.033 391.131 533.817 380.972 527.774 375.587C521.73 370.202 524.153 392.401 524.153 392.401Z" fill="#6DBE45" stroke="#263238" stroke-miterlimit="10"/>
<path d="M532.407 393.53C532.179 393.734 531.926 393.908 531.654 394.047C530.93 394.386 530.101 394.426 529.348 394.157C528.595 393.888 527.979 393.333 527.633 392.613L515.875 367.804C515.705 367.446 515.608 367.057 515.588 366.661C515.568 366.265 515.626 365.869 515.759 365.496C515.893 365.123 516.098 364.779 516.364 364.485C516.63 364.191 516.951 363.952 517.31 363.783C517.668 363.613 518.056 363.515 518.452 363.495C518.848 363.475 519.244 363.534 519.617 363.667C519.991 363.8 520.334 364.006 520.628 364.272C520.922 364.538 521.161 364.859 521.331 365.217L533.089 390.026C533.356 390.608 533.434 391.259 533.312 391.888C533.19 392.516 532.873 393.091 532.407 393.53Z" fill="white" stroke="#263238" stroke-miterlimit="10"/>
<path d="M523.8 351.46C519.254 355.689 513.556 358.475 507.427 359.465C501.298 360.456 495.013 359.607 489.366 357.025C483.719 354.444 478.965 350.246 475.704 344.963C472.443 339.68 470.822 333.548 471.045 327.344C471.269 321.139 473.327 315.14 476.96 310.105C480.593 305.07 485.637 301.226 491.455 299.057C497.273 296.889 503.603 296.495 509.645 297.924C515.687 299.353 521.169 302.542 525.399 307.086C531.06 313.188 534.072 321.286 533.772 329.604C533.472 337.922 529.886 345.782 523.8 351.46ZM485.14 309.885C481.463 313.302 478.882 317.733 477.723 322.617C476.565 327.501 476.881 332.619 478.632 337.323C480.383 342.028 483.49 346.107 487.56 349.045C491.63 351.983 496.48 353.648 501.496 353.829C506.513 354.01 511.47 352.699 515.741 350.062C520.013 347.425 523.406 343.58 525.491 339.015C527.577 334.449 528.261 329.367 527.458 324.412C526.654 319.457 524.399 314.851 520.978 311.178C516.392 306.264 510.044 303.368 503.326 303.125C496.609 302.883 490.069 305.314 485.14 309.885Z" fill="black"/>
<path d="M528.268 368.509C528.268 368.509 531.536 366.769 532.971 369.45C534.405 372.131 537.956 377.704 537.274 379.726C536.592 381.749 532.783 382.078 530.925 379.985C529.097 377.296 527.611 374.389 526.504 371.331L528.268 368.509Z" fill="white" stroke="#263238" stroke-miterlimit="10"/>
<path d="M515.71 372.507L528.268 368.509C528.72 368.799 529.103 369.185 529.387 369.641C529.672 370.096 529.852 370.609 529.914 371.143C530.173 373.024 535.463 383.489 534.876 386.122C534.288 388.756 522.812 393.577 521.66 392.142C520.508 390.708 513.735 374.365 513.735 374.365C513.735 374.365 513.547 373.118 515.71 372.507Z" fill="white" stroke="#263238" stroke-miterlimit="10"/>
<path d="M530.173 373.024L518.838 376.552" stroke="#263238" stroke-miterlimit="10" stroke-linecap="round"/>
<path d="M531.819 377.915L521.495 381.913" stroke="#263238" stroke-miterlimit="10" stroke-linecap="round"/>
<path d="M533.723 382.454L523.941 387.98" stroke="#263238" stroke-miterlimit="10" stroke-linecap="round"/>
<path d="M580.355 323.641C580.355 323.641 570.173 342.76 568.997 361.901C567.821 381.043 585.128 383.418 587.527 385.205C589.926 386.992 598.885 462.336 598.885 462.336C598.885 462.336 536.098 543.066 536.098 552.025C536.098 560.984 527.186 648.956 527.186 648.956L540.331 649.568C540.331 649.568 560.108 593.883 564.811 580.761C569.514 567.639 571.372 547.275 571.372 547.275L629.385 492.86C629.385 492.86 635.946 546.075 641.942 557.434C647.939 568.792 689.162 650.72 689.162 650.72C692.694 651.624 696.297 652.222 699.932 652.507C702.418 652.395 704.856 651.788 707.104 650.72L671.831 549.603C671.831 549.603 673.618 457.516 665.858 442.56C658.097 427.604 638.344 406.087 638.344 406.087C638.344 406.087 621.601 336.74 619.203 325.969C616.804 315.199 603.071 306.24 596.487 306.24C589.902 306.24 580.355 323.641 580.355 323.641Z" fill="#6DBE45" stroke="#263238" stroke-miterlimit="10"/>
<path d="M569.514 311.672L577.886 324.817C577.886 324.817 573.183 345.158 577.298 340.385C581.413 335.611 588.044 318.256 591.642 314.659C593.86 312.287 595.473 309.415 596.345 306.287L578.544 296.222L569.514 311.672Z" fill="white" stroke="#263238" stroke-miterlimit="10"/>
<path d="M532.383 267.815C532.383 267.815 531.325 278.797 534.899 284.276C538.474 289.755 539.602 291.449 538.497 295.023C537.392 298.597 531.913 298.621 533.112 301.607C534.311 304.594 540.896 305.793 540.896 305.793C540.896 305.793 548.068 322.536 554.629 322.536C561.19 322.536 578.003 306.075 580.378 300.079C582.753 294.082 558.227 278.28 554.041 274.705C549.855 271.131 537.157 261.231 532.383 267.815Z" fill="white" stroke="#263238" stroke-miterlimit="10"/>
<path d="M547.01 288.65C547.668 290.649 547.457 292.53 546.516 292.836C545.575 293.142 544.164 291.778 543.623 289.779C543.083 287.78 543.153 285.899 544.094 285.57C545.034 285.24 546.328 286.628 547.01 288.65Z" fill="black"/>
<path d="M545.176 307.322C545.176 307.322 550.96 307.322 552.889 298.974" stroke="#263238" stroke-miterlimit="10" stroke-linecap="round"/>
<path d="M535.346 239.926H522.977C515.028 239.926 514.158 255.799 530.925 273.459C547.692 291.119 581.225 312.283 600.649 312.283C620.073 312.283 636.839 317.574 643.894 336.998C650.949 356.422 662.424 374.059 696.851 367.004C731.278 359.95 740.096 313.177 715.381 273.459C690.666 233.741 658.003 240.796 641.237 248.744C624.47 256.693 596.228 259.326 590.937 248.744C585.646 238.162 573.136 231.037 559.896 231.037C546.657 231.037 535.346 239.926 535.346 239.926Z" fill="black"/>
<path d="M707.104 650.696L671.831 549.579C671.831 549.579 673.618 457.492 665.858 442.536C659.179 429.72 643.753 412.107 639.497 407.263L593.618 420.855C596.345 441.078 598.885 462.36 598.885 462.36C598.885 462.36 536.098 543.089 536.098 552.049C536.098 561.008 527.186 648.956 527.186 648.956L540.331 649.568C540.331 649.568 560.108 593.883 564.811 580.761C569.514 567.639 571.372 547.275 571.372 547.275L629.385 492.86C629.385 492.86 635.946 546.076 641.942 557.434C647.939 568.792 689.162 650.72 689.162 650.72C692.694 651.624 696.297 652.222 699.932 652.507C702.419 652.388 704.858 651.772 707.104 650.696Z" fill="black" stroke="#263238" stroke-miterlimit="10"/>
<path d="M605.47 324.229C602.776 323.578 599.936 323.952 597.503 325.277C595.069 326.603 593.215 328.786 592.301 331.402C588.726 340.973 603.659 349.344 615.017 361.972C626.375 374.6 659.273 400.232 659.273 400.232L678.415 461.231L687.374 459.421C687.374 459.421 675.334 390.003 675.334 388.215C675.334 386.428 625.129 336.787 623.318 335C621.507 333.212 614.358 325.429 614.358 325.429" fill="#6DBE45"/>
<path d="M605.47 324.229C602.776 323.578 599.936 323.952 597.503 325.277C595.069 326.603 593.215 328.786 592.301 331.402C588.726 340.973 603.659 349.344 615.017 361.972C626.375 374.6 659.273 400.232 659.273 400.232L678.415 461.231L687.374 459.421C687.374 459.421 675.334 390.003 675.334 388.215C675.334 386.428 625.129 336.787 623.318 335C621.507 333.212 614.358 325.429 614.358 325.429" stroke="#263238" stroke-miterlimit="10"/>
<path d="M678.415 461.161L674.817 476.705L680.79 488.063C680.79 488.063 685.493 489.85 686.786 487.451L687.962 485.1C687.962 485.1 693.959 484.488 694.547 479.103C695.135 473.718 687.374 459.374 687.374 459.374L678.415 461.161Z" fill="white" stroke="#263238" stroke-miterlimit="10"/>
<path d="M527.186 648.956C527.186 648.956 497.886 670.497 496.616 674.071C495.346 677.645 536.075 668.098 539.673 667.487C543.271 666.875 540.261 649.568 540.261 649.568L527.186 648.956Z" fill="#6DBE45" stroke="#263238" stroke-miterlimit="10"/>
<path d="M499.626 670.614C498.44 671.56 497.43 672.706 496.639 674C495.44 677.598 536.099 668.027 539.696 667.416C540.919 667.228 541.366 665.064 541.437 662.266L499.626 670.614Z" fill="white" stroke="#263238" stroke-miterlimit="10"/>
<path d="M689.161 650.696C689.161 650.696 664.658 654.882 667.645 658.457C672.167 662.789 678.129 665.3 684.388 665.511C690.361 665.511 692.759 667.299 698.144 670.214C703.53 673.13 707.104 673.201 708.891 668.404C710.678 663.607 707.104 650.485 707.104 650.485C707.104 650.485 692.759 653.659 689.161 650.696Z" fill="#6DBE45" stroke="#263238" stroke-miterlimit="10"/>
<path d="M698.145 670.426C703.506 673.413 707.104 673.413 708.891 668.615C709.09 668.07 709.216 667.501 709.267 666.922C700.355 671.414 692.148 660.738 684.67 660.738C679.967 660.738 673.406 658.128 669.056 656.035C667.645 656.834 666.986 657.634 667.645 658.386C672.167 662.718 678.129 665.23 684.388 665.441C690.361 665.629 692.76 667.416 698.145 670.426Z" fill="white" stroke="#263238" stroke-miterlimit="10"/>
<path d="M552.089 269.038C556.792 278.444 563.588 289.661 571.442 294.247" stroke="white" stroke-width="0.75" stroke-miterlimit="10"/>
<path d="M545.387 253.306C545.387 253.306 546.445 256.387 548.374 260.925" stroke="white" stroke-width="0.75" stroke-miterlimit="10"/>
<path d="M716.04 288.415C718.134 290.096 719.986 292.059 721.542 294.247" stroke="white" stroke-width="0.75" stroke-miterlimit="10" stroke-linecap="round"/>
<path d="M530.079 250.414C530.079 250.414 538.356 278.633 566.057 291.754C593.759 304.876 604.929 302.101 640.061 286.816C666.963 275.058 693.394 275.764 709.691 284.3" stroke="white" stroke-width="0.75" stroke-miterlimit="10" stroke-linecap="round"/>
<path d="M666.939 343.841C666.492 334.741 675.805 336.058 676.886 336.41" stroke="white" stroke-width="0.75" stroke-miterlimit="10" stroke-linecap="round"/>
<path d="M620.237 295.07C620.237 295.07 636.369 292.177 667.786 292.577C699.203 292.977 718.65 325.264 712.465 344.688C706.775 362.513 677.427 362.607 669.432 351.743" stroke="white" stroke-width="0.75" stroke-miterlimit="10" stroke-linecap="round"/>
<path d="M284.952 424.171C349.551 424.171 401.918 414.106 401.918 401.69C401.918 389.274 349.551 379.209 284.952 379.209C220.353 379.209 167.985 389.274 167.985 401.69C167.985 414.106 220.353 424.171 284.952 424.171Z" fill="#6DBE45"/>
<path opacity="0.5" d="M284.952 424.171C349.551 424.171 401.918 414.106 401.918 401.69C401.918 389.274 349.551 379.209 284.952 379.209C220.353 379.209 167.985 389.274 167.985 401.69C167.985 414.106 220.353 424.171 284.952 424.171Z" fill="white"/>
<path d="M342.988 41.7129C342.988 41.7129 342.988 29.9551 342.988 22.4771C342.988 14.9991 353.641 1.97149 369.749 1.31305C385.857 0.654613 412.077 21.7246 407.892 33.0121C403.706 44.2996 397.686 37.7152 397.686 37.7152C397.686 37.7152 401.989 42.5594 396.087 45.2402C390.184 47.921 386.093 36.8922 386.093 36.8922C386.093 36.8922 378.027 29.3672 370.502 29.3672C362.977 29.3672 365.14 29.908 359.755 37.4095C354.37 44.911 349.549 42.7946 349.549 45.4754C349.549 48.1562 353.312 52.5301 347.409 52.5301C341.507 52.5301 342.988 41.7129 342.988 41.7129Z" fill="black" stroke="#263238" stroke-miterlimit="10"/>
<path d="M112.583 304.335C112.583 304.335 95.0164 299.326 92.5002 300.831C89.984 302.336 86.974 341.019 87.9852 344.523C88.9964 348.027 104.446 318.397 104.446 318.397L111.971 317.41L112.583 304.335Z" fill="#6DBE45" stroke="#263238" stroke-miterlimit="10"/>
<path d="M95.1339 300.573C94.2483 300.433 93.3418 300.522 92.5002 300.831C89.984 302.336 86.974 341.019 87.9852 344.523C88.2204 345.346 89.255 344.335 90.713 342.313L95.1339 300.573Z" fill="white" stroke="#263238" stroke-miterlimit="10"/>
<path d="M257.768 176.763C253.097 183.427 249.058 190.512 245.704 197.927C241.189 208.462 236.157 219.514 236.157 219.514L206.527 284.817C206.527 284.817 151.266 297.892 144.235 299.891C137.203 301.889 112.583 304.406 112.583 304.406L112.089 317.48C112.089 317.48 180.895 319.479 196.98 319.479C213.065 319.479 216.075 322.489 222.095 317.974C228.115 313.459 272.818 237.433 272.818 237.433L290.407 236.446C290.407 236.446 340.143 293.706 344.164 299.726C348.185 305.746 361.73 345.934 368.762 359.009C373 366.876 378.052 374.277 383.835 381.09L394.887 368.533C394.887 368.533 371.372 292.695 368.268 276.61C365.164 260.526 325.07 208.815 325.07 208.815L329.091 182.195C329.091 182.195 264.282 184.288 257.768 176.763Z" fill="black" stroke="#263238" stroke-miterlimit="10"/>
<path d="M345.105 75.9516C345.105 75.9516 308.679 73.8587 303.435 74.2114C298.191 74.5642 293.277 75.2461 292.595 78.3972C291.913 81.5483 255.487 175.705 255.487 182.007C255.487 188.309 275.781 196.728 294.687 196.728C306.852 196.645 318.654 192.582 328.291 185.158C330.031 183.771 377.298 95.2109 378.356 93.0945C379.414 90.9781 379.038 87.8505 375.558 84.6994C372.077 81.5483 345.105 75.9516 345.105 75.9516Z" fill="#6DBE45" stroke="#263238" stroke-miterlimit="10"/>
<path d="M347.198 70.4725C347.198 70.4725 337.791 72.5654 335.299 75.7164C332.806 78.8675 325.493 107.227 325.493 107.227L344.305 103.371L355.146 119.832C355.146 119.832 362.506 96.0339 362.859 85.8752C363.212 75.7164 352.442 69.2967 347.198 70.4725Z" fill="#6DBE45" stroke="#263238" stroke-miterlimit="10"/>
<path d="M292.924 75.787C282.563 78.9436 272.616 83.325 263.294 88.8381C250.713 96.8805 214.052 118.985 214.052 118.985L237.568 125.005L280.766 107.933C280.766 107.933 289.914 88.8381 292.924 75.787Z" fill="#6DBE45" stroke="#263238" stroke-miterlimit="10"/>
<path d="M282.883 124.018C282.883 124.018 259.767 121.501 249.208 118.491C238.65 115.481 228.632 109.438 218.074 115.975C207.515 122.513 208.526 130.085 215.064 135.07C221.601 140.055 259.273 135.564 266.798 135.07C271.251 134.786 275.565 133.405 279.355 131.049L282.883 124.018Z" fill="#6DBE45" stroke="#263238" stroke-miterlimit="10"/>
<path d="M277.356 124.558C277.356 124.558 300.449 116.022 301.954 116.022C303.459 116.022 306.492 116.022 306.986 119.526C307.48 123.03 309.502 131.59 307.48 132.083C305.458 132.577 294.923 136.622 292.406 136.622C290.692 136.564 289 136.223 287.397 135.611C285.464 136.304 283.384 136.485 281.361 136.135C279.337 135.784 277.439 134.915 275.851 133.612C270.325 129.026 274.323 126.016 277.356 124.558Z" fill="white" stroke="#263238" stroke-miterlimit="10"/>
<path d="M287.398 135.564L285.375 129.544" stroke="#263238" stroke-miterlimit="10"/>
<path d="M293.935 122.512L297.439 135.564" stroke="#263238" stroke-miterlimit="10" stroke-linecap="round"/>
<path d="M299.955 118.491L303.459 132.036" stroke="#263238" stroke-miterlimit="10" stroke-linecap="round"/>
<path d="M288.903 125.005L292.406 136.575" stroke="#263238" stroke-miterlimit="10" stroke-linecap="round"/>
<path d="M376.686 86.2045C381.388 90.4539 385.166 95.6246 387.786 101.396C393.171 112.166 408.95 146.687 408.95 146.687C408.95 146.687 414.006 158.444 403.565 162.207C393.124 165.969 391.807 155.881 387.409 150.167C383.012 144.453 366.833 115.011 366.833 115.011L376.686 86.2045Z" fill="#6DBE45" stroke="#263238" stroke-miterlimit="10"/>
<path d="M388.162 144.147C389.934 142.633 392.008 141.512 394.246 140.859C396.483 140.207 398.834 140.037 401.143 140.361C409.373 141.301 412.242 153.976 409.067 160.631C405.893 167.286 397.309 169.802 394.488 168.533C391.666 167.263 382.471 162.183 388.162 144.147Z" fill="#6DBE45" stroke="#263238" stroke-miterlimit="10"/>
<path d="M392.089 142.501C391.895 142.535 391.696 142.535 391.501 142.501C391.249 142.423 391.014 142.296 390.811 142.127C390.608 141.959 390.441 141.751 390.318 141.517C390.196 141.283 390.121 141.027 390.098 140.764C390.075 140.501 390.104 140.236 390.184 139.985L393.476 129.52C393.554 129.268 393.681 129.034 393.85 128.832C394.019 128.63 394.227 128.463 394.462 128.343C394.696 128.222 394.953 128.15 395.215 128.13C395.478 128.11 395.743 128.143 395.993 128.227C396.245 128.304 396.48 128.431 396.683 128.6C396.886 128.769 397.053 128.976 397.176 129.21C397.298 129.444 397.373 129.7 397.396 129.963C397.419 130.226 397.39 130.491 397.31 130.743L394.017 141.207C393.865 141.593 393.599 141.923 393.254 142.154C392.91 142.385 392.504 142.506 392.089 142.501Z" fill="white" stroke="#263238" stroke-miterlimit="10"/>
<path d="M383.741 169.732C383.437 169.733 383.136 169.685 382.847 169.591C382.085 169.348 381.451 168.813 381.081 168.104C380.711 167.395 380.636 166.569 380.872 165.805L389.126 139.585C389.385 138.848 389.921 138.241 390.62 137.892C391.319 137.543 392.126 137.479 392.871 137.714C393.616 137.949 394.24 138.465 394.612 139.152C394.984 139.839 395.074 140.643 394.864 141.396L386.61 167.615C386.423 168.23 386.043 168.767 385.526 169.149C385.009 169.53 384.383 169.734 383.741 169.732Z" fill="white" stroke="#263238" stroke-miterlimit="10"/>
<path d="M406.198 133.047C399.989 133.047 393.92 131.206 388.757 127.757C383.595 124.307 379.571 119.404 377.195 113.668C374.819 107.931 374.197 101.619 375.408 95.5295C376.62 89.4398 379.61 83.8461 384 79.4556C388.39 75.0652 393.984 72.0753 400.074 70.864C406.164 69.6527 412.476 70.2743 418.212 72.6504C423.949 75.0265 428.851 79.0503 432.301 84.2129C435.751 89.3755 437.592 95.4451 437.592 101.654C437.579 109.976 434.268 117.954 428.383 123.839C422.498 129.723 414.521 133.035 406.198 133.047ZM406.198 76.2807C401.179 76.2761 396.271 77.7603 392.095 80.5455C387.92 83.3307 384.664 87.2919 382.74 91.9278C380.816 96.5638 380.31 101.666 381.286 106.59C382.263 111.513 384.677 116.037 388.225 119.587C391.773 123.138 396.294 125.557 401.216 126.538C406.139 127.519 411.242 127.018 415.879 125.098C420.517 123.178 424.481 119.926 427.27 115.753C430.06 111.58 431.548 106.673 431.548 101.654C431.542 94.9306 428.87 88.484 424.118 83.7276C419.366 78.9712 412.922 76.2932 406.198 76.2807Z" fill="black"/>
<path d="M384.376 141.631C384.376 141.631 380.872 140.361 379.931 143.206C378.991 146.052 376.122 152.072 377.086 153.976C378.05 155.881 381.789 155.552 383.412 153.342C384.844 150.419 385.91 147.331 386.586 144.147L384.376 141.631Z" fill="white" stroke="#263238" stroke-miterlimit="10"/>
<path d="M397.356 143.841L384.376 141.631C383.967 141.982 383.641 142.419 383.422 142.911C383.202 143.403 383.094 143.937 383.106 144.476C383.106 146.381 379.297 157.457 380.237 159.996C381.178 162.536 393.241 165.687 394.182 164.112C395.123 162.536 399.567 145.417 399.567 145.417C399.567 145.417 399.567 144.147 397.356 143.841Z" fill="white" stroke="#263238" stroke-miterlimit="10"/>
<path d="M383.106 146.381L394.817 148.262" stroke="#263238" stroke-miterlimit="10" stroke-linecap="round"/>
<path d="M382.142 151.437L392.912 153.976" stroke="#263238" stroke-miterlimit="10" stroke-linecap="round"/>
<path d="M380.872 156.187L391.337 160.302" stroke="#263238" stroke-miterlimit="10" stroke-linecap="round"/>
<path d="M346.116 62.9944C346.116 62.9944 341.578 81.1955 341.578 89.2614C341.578 97.3272 341.577 103.959 344.376 103.371C347.174 102.783 356.627 84.5582 358.368 77.5036C360.108 70.4489 353.853 56.6922 346.116 62.9944Z" fill="white" stroke="#263238" stroke-miterlimit="10"/>
<path d="M345.128 42.7947C345.128 42.7947 341.366 36.3514 339.226 40.6312C337.086 44.911 334.923 55.1403 338.144 58.362C341.366 61.5836 342.448 56.7629 342.448 56.7629C342.448 56.7629 342.988 71.272 348.35 76.6336C353.712 81.9952 359.638 84.6994 368.244 80.9369C376.851 77.1745 387.574 61.5836 390.796 50.8605C392.504 45.5993 393.762 40.2028 394.558 34.7288C394.558 34.7288 392.418 26.1456 380.049 23.4413C367.68 20.737 354.817 25.6047 354.817 30.9663C354.817 36.3278 357.498 36.8922 354.276 38.4913C352.617 39.4102 350.781 39.9635 348.891 40.1139C348.891 40.1139 346.751 51.3778 345.128 42.7947Z" fill="white" stroke="#263238" stroke-miterlimit="10"/>
<path d="M379.296 54.0116C378.756 55.8929 377.674 57.2098 376.945 56.9746C376.216 56.7395 375.934 55.0463 376.475 53.1886C377.015 51.3309 378.097 49.9905 378.826 50.2256C379.555 50.4608 379.837 52.1304 379.296 54.0116Z" fill="black"/>
<path d="M359.802 46.8862L367.492 51.5658" stroke="#263238" stroke-miterlimit="10" stroke-linecap="round"/>
<path d="M377.18 44.8875C377.18 44.8875 382.518 39.8787 384.235 45.8987" stroke="#263238" stroke-miterlimit="10" stroke-linecap="round"/>
<path d="M369.82 44.229C369.82 44.229 368.809 36.8686 362.459 38.8675" stroke="#263238" stroke-miterlimit="10" stroke-linecap="round"/>
<path d="M375.181 50.2255C374.131 51.0215 373.259 52.0295 372.623 53.1841C371.987 54.3386 371.601 55.614 371.489 56.9274C371.489 60.9251 374.829 64.617 371.819 65.2755C368.809 65.9339 364.129 62.6182 364.129 62.6182" stroke="#263238" stroke-miterlimit="10" stroke-linecap="round"/>
<path d="M366.81 70.9663C366.81 70.9663 358.109 72.3067 357.121 65.9575" stroke="#263238" stroke-miterlimit="10" stroke-linecap="round"/>
<path d="M383.741 381.184C383.741 381.184 388.773 395.294 392.277 395.294C395.781 395.294 423.929 367.663 424.94 364.723C425.951 361.784 398.814 371.778 398.814 371.778L394.793 368.744L383.741 381.184Z" fill="#6DBE45" stroke="#263238" stroke-miterlimit="10"/>
<path d="M419.391 364.911L389.996 393.6C390.819 394.588 391.619 395.27 392.348 395.27C395.875 395.27 424 367.639 425.011 364.7C425.34 363.665 422.894 364.018 419.391 364.911Z" fill="white" stroke="#263238" stroke-miterlimit="10"/>
</svg>
